<svg width="782" height="119" viewBox="0 0 782 119" fill="none" xmlns="http://www.w3.org/2000/svg">
<g clip-path="url(#clip0_718_117)">
<path d="M467.925 2.68262H466.703V84.3668H467.925V2.68262Z" fill="#5E1B3C"/>
<path d="M540.196 40.2931H552.05L560.573 5.66016H550.135L546.093 29.135L540.777 5.66016H530.196L524.738 29.3382L520.695 5.66016H510.268L518.679 40.2931H530.543L535.421 19.0743L540.196 40.2931Z" fill="#5E1B3C"/>
<path d="M611.836 36.4623C612.592 37.7598 613.701 38.8169 615.034 39.511C616.54 40.2878 618.216 40.6789 619.912 40.6492C622.031 40.6684 624.109 40.0678 625.889 38.9216C627.737 37.7104 629.202 36.0014 630.115 33.9929C631.198 31.6433 631.731 29.0786 631.673 26.4931C631.732 23.9206 631.199 21.3688 630.115 19.034C629.196 17.0319 627.732 15.3277 625.889 14.1155C624.108 12.9723 622.03 12.3752 619.912 12.3981C618.233 12.3626 616.572 12.7395 615.075 13.4956C613.741 14.1897 612.633 15.2468 611.877 16.5443L611.958 2.23584H602.315L602.223 40.2732H611.877L611.836 36.4623ZM613.282 22.3571C613.745 21.8814 614.299 21.5032 614.912 21.245C615.524 20.9868 616.182 20.8537 616.846 20.8537C617.511 20.8537 618.169 20.9868 618.781 21.245C619.393 21.5032 619.947 21.8814 620.411 22.3571C620.918 22.927 621.307 23.5909 621.557 24.3111C621.807 25.0312 621.912 25.7934 621.867 26.5541C621.947 28.0919 621.425 29.6005 620.411 30.7613C619.952 31.2447 619.399 31.6298 618.787 31.8929C618.174 32.156 617.514 32.2918 616.846 32.2918C616.179 32.2918 615.519 32.156 614.906 31.8929C614.294 31.6298 613.741 31.2447 613.282 30.7613C612.261 29.5972 611.742 28.078 611.836 26.5338C611.747 25.0057 612.267 23.5045 613.282 22.3571Z" fill="#5E1B3C"/>
<path d="M674.637 2.25586H664.993V40.2932H674.637V2.25586Z" fill="#5E1B3C"/>
<path d="M689.301 12.7334H679.657V40.2934H689.301V12.7334Z" fill="#5E1B3C"/>
<path d="M737.397 31.1982L732.132 12.7334H721.847L731.348 40.2934H743.354L752.855 12.7334H742.57L737.397 31.1982Z" fill="#5E1B3C"/>
<path d="M684.494 10.4365C685.205 10.4789 685.917 10.3735 686.585 10.127C687.253 9.88039 687.863 9.49801 688.375 9.00408C688.887 8.51014 689.291 7.91541 689.561 7.25758C689.831 6.59974 689.961 5.89315 689.942 5.18259C689.882 3.78531 689.283 2.46534 688.271 1.49802C687.258 0.5307 685.911 -0.00927734 684.51 -0.00927734C683.108 -0.00927734 681.761 0.5307 680.749 1.49802C679.736 2.46534 679.137 3.78531 679.077 5.18259C679.062 5.88962 679.193 6.59212 679.462 7.24637C679.731 7.90062 680.132 8.4926 680.64 8.98545C681.149 9.4783 681.753 9.86148 682.416 10.1111C683.079 10.3607 683.787 10.4715 684.494 10.4365Z" fill="#5E1B3C"/>
<path d="M709.647 57.4472V57.3863C709.586 57.3151 709.586 57.4472 709.647 57.4472Z" fill="#5E1B3C"/>
<path d="M707.742 62.9452C707.811 62.9452 707.811 62.8232 707.742 62.8232C707.672 62.8232 707.682 62.9452 707.742 62.9452Z" fill="#5E1B3C"/>
<path d="M712.835 45.3946C712.509 45.3946 711.002 45.3337 710.869 45.7198L706.674 56.5934C706.649 56.7087 706.604 56.8187 706.541 56.9186L704.688 62.3554L704.556 62.6908L702.193 70.5462C702.186 70.5974 702.161 70.6444 702.122 70.6783C700.747 70.7393 699.433 70.8104 698.048 70.8104H697.387C697.254 70.7393 697.193 70.6783 697.193 70.6173C697.193 70.221 697.458 69.8958 697.519 69.4995L701.063 61.2477L701.399 60.2315C701.46 60.2315 701.46 60.1604 701.46 60.1604C701.46 59.6908 701.366 59.2259 701.184 58.7928C701.002 58.3597 700.736 57.9671 700.4 57.6379C700.065 57.3087 699.667 57.0495 699.23 56.8754C698.793 56.7013 698.325 56.6158 697.855 56.6239C697.122 56.6239 695.747 56.6849 695.686 57.6401L693.975 62.3554L692.071 69.2353C692.01 69.3674 691.806 71.8571 691.052 71.9181C690.034 72.1214 688.099 72.4466 686.918 72.7718H686.399L686.327 72.9039C685.93 73.229 685.869 74.6111 685.869 75.0684C685.869 76.5115 686.887 78.2086 688.496 78.2086C688.968 78.1701 689.432 78.0605 689.871 77.8834H689.932C689.932 77.8834 690.004 77.8834 690.004 77.9443V78.4118L689.219 84.9563C689.109 86.023 689.065 87.0955 689.087 88.1676V89.6716C689.158 90.0679 689.219 91.8362 690.004 91.8362C690.136 91.8362 690.727 91.5719 690.727 91.3788C690.724 91.0377 690.69 90.6976 690.625 90.3626C690.663 90.5725 690.743 90.7728 690.859 90.952V90.8911C690.859 90.4338 690.665 90.0374 690.665 89.509V89.1838L690.859 90.2H690.92L690.991 90.0679C690.991 90.1371 691.012 90.2048 691.052 90.261C691.052 89.8037 690.92 88.8281 691.185 88.4318L691.317 89.7326C691.45 88.2997 691.643 86.7957 691.775 85.3526C691.747 83.9632 691.901 82.5761 692.234 81.2267L692.692 78.0155L692.763 77.8122V78.0155C692.709 78.3855 692.685 78.7594 692.692 79.1333L692.101 83.5844C692.173 84.6006 691.775 85.8709 691.775 86.9278V87.1818C691.908 87.1818 692.101 86.2672 692.101 86.0741L692.896 79.1943C692.896 79.0622 693.221 77.294 693.354 76.7045C693.415 76.3794 693.415 76.1151 693.751 76.1151H693.812L693.578 77.609V77.5582C693.578 77.5582 693.639 77.6903 693.578 77.6903C693.517 77.6903 693.578 77.6903 693.578 77.6293L692.692 83.1881V83.3812C692.784 83.0184 692.939 82.6745 693.15 82.3649L693.221 81.7145L693.283 81.6536V80.8914L693.15 81.2267V81.0946C693.15 80.241 693.68 79.1333 693.547 78.3407V78.2492L693.68 78.3203C693.649 77.9823 693.649 77.6422 693.68 77.3041C693.68 77.3041 693.68 77.1618 693.68 77.172V76.9484C693.68 76.9484 693.68 76.9484 693.68 76.8875C693.674 76.8198 693.674 76.7518 693.68 76.6842C693.671 76.6723 693.667 76.6581 693.667 76.6436C693.667 76.629 693.671 76.6148 693.68 76.6029C693.812 76.2269 693.995 75.9322 694.281 75.9322V76.1355L693.629 79.1841C693.314 79.9299 693.158 80.7327 693.171 81.5418C693.171 81.745 693.303 81.6739 693.232 81.9991L693.303 81.867C693.303 81.6739 693.496 80.7593 693.496 80.556L695.136 75.7798C695.268 75.1904 696.847 74.9973 697.305 74.7636C698.546 74.4037 699.824 74.1822 701.114 74.103V74.1843L699.474 84.3466L698.822 90.7589V91.8768C698.814 93.4356 698.903 94.9934 699.087 96.5413C699.087 96.7953 699.219 96.9986 699.413 96.9986C699.606 96.9986 699.932 96.9986 699.932 96.7344V95.525H700.004C700.085 95.9129 700.13 96.3076 700.136 96.7039H700.197C700.33 96.5718 700.258 96.1145 700.258 96.0535L700.329 95.9823V94.5088C700.462 94.7629 700.391 96.1449 700.655 96.2059V96.0128C700.655 95.4234 700.594 94.895 700.594 94.3157C700.594 93.7365 700.655 93.391 700.655 92.8727L700.788 94.1125V92.5577H700.859C700.859 92.8219 700.991 94.3259 700.991 94.6511C701.017 94.7584 701.038 94.8669 701.052 94.9763V91.9276C701.188 88.7856 701.528 85.6558 702.071 82.558V82.8934L701.154 90.0984C701.158 90.4925 701.134 90.8864 701.083 91.2772V91.3382C701.154 91.3382 701.154 91.4093 701.215 91.4093V91.1451C701.419 91.5414 701.154 91.9987 701.348 92.3239L701.419 90.952C701.497 90.9244 701.561 90.8674 701.597 90.7933C701.633 90.7192 701.639 90.6339 701.613 90.5557L703.12 79.55L703.782 76.2777C703.975 75.6883 704.036 75.0278 704.24 74.4384V74.6416L703.731 77.609V77.7208L703.598 78.4931V78.5947V78.9098L703.293 80.6475L702.651 83.8486L702.071 88.6249C702.071 88.696 702.071 88.8281 702.132 88.8281L702.651 84.3466L702.712 84.0823V84.5396L703.242 81.3385C703.39 80.753 703.475 80.1535 703.497 79.55V79.428C703.497 79.2553 703.497 79.0927 703.558 78.9301C703.574 78.7323 703.601 78.5355 703.639 78.3407C703.704 78.0525 703.817 77.7776 703.975 77.5277V77.8529L702.794 85.3221C702.694 85.8217 702.629 86.3277 702.6 86.8363V86.9684C702.6 87.0294 702.661 87.1615 702.661 87.2225C702.926 86.3689 702.794 85.3933 703.13 84.6006L704.372 77.3956V77.7919L703.191 85.0579V85.6575L704.769 76.5115L705.706 73.1681L705.778 73.036L703.741 83.1982V83.4624C703.775 83.4023 703.799 83.3371 703.812 83.2694C703.847 82.9557 703.912 82.6461 704.006 82.3446V82.4157C704.006 82.4767 703.945 83.2694 703.945 83.3303V83.5234L704.006 83.3303L704.332 81.1658L706.307 73.5746C706.368 73.3713 706.439 72.914 706.633 72.7819H706.826C707.346 72.7819 707.682 73.1173 708.201 73.1782L708.14 73.1173C708.062 72.9788 707.973 72.8463 707.875 72.7209L707.224 72.3856C707.875 72.3856 708.334 73.1782 708.995 73.1782C709.046 73.1758 709.094 73.1546 709.13 73.119C709.165 73.0833 709.186 73.0356 709.189 72.9852C709.189 71.9689 706.959 71.6031 706.959 71.1458V71.0848L708.466 66.0037L710.961 59.6421L713.13 55.2622C713.278 55.0899 713.388 54.8893 713.456 54.6728L715.757 50.8111C716.117 50.1952 716.297 49.4912 716.277 48.7787C716.253 47.8798 715.881 47.0251 715.239 46.3941C714.597 45.7631 713.736 45.4048 712.835 45.3946ZM693.171 81.4198C693.109 81.4198 693.109 81.2877 693.171 81.2877V81.4198ZM693.639 78.0155C693.568 78.0155 693.568 77.8834 693.639 77.8834C693.71 77.8834 693.7 78.0155 693.639 78.0155ZM699.871 89.4785V89.6716C699.8 89.7326 699.8 89.4785 699.871 89.4785ZM699.871 89.8037V89.9358H699.8C699.8 89.8647 699.8 89.8037 699.871 89.8037ZM699.8 90.0679C699.872 90.3031 699.872 90.5542 699.8 90.7894V90.0679ZM699.8 91.0841C699.871 92.3239 699.871 92.9133 699.871 93.8991V94.5088C699.759 93.858 699.715 93.1973 699.739 92.5373C699.728 92.0623 699.748 91.587 699.8 91.1146V91.0841ZM699.871 94.8137C699.8 94.8137 699.8 94.6816 699.871 94.6816C699.943 94.6816 699.932 94.8442 699.871 94.8442V94.8137ZM699.932 95.271C699.871 95.271 699.871 95.0169 699.932 95.0169V95.271ZM701.317 90.952C701.246 91.0232 701.246 90.4338 701.317 90.4947V90.952ZM701.511 87.9034C701.511 87.7712 701.511 87.507 701.582 87.507H701.633C701.643 87.5882 701.636 87.6705 701.613 87.7491C701.591 87.8277 701.552 87.9009 701.501 87.9643L701.511 87.9034ZM701.378 90.261C701.317 90.261 701.317 90.1289 701.378 90.1289V90.261ZM701.45 89.3464C701.378 89.4175 701.378 89.2143 701.45 89.2854V89.3464ZM701.45 88.9501C701.378 88.9501 701.378 88.8281 701.45 88.8281V88.9501ZM701.45 88.4928V88.4115C701.511 88.4115 701.511 88.4928 701.45 88.4928ZM701.511 90.0679V89.8037C701.633 89.8647 701.633 90.0679 701.511 90.0679ZM701.582 89.5395C701.511 89.5395 701.511 89.4175 701.582 89.4175C701.653 89.4175 701.633 89.5395 701.633 89.5395H701.582ZM701.643 88.757C701.582 88.757 701.582 88.6249 701.643 88.6249C701.704 88.6249 701.714 88.757 701.633 88.757H701.643ZM703.089 82.2023L702.824 84.0417V83.8486C702.842 83.2073 702.931 82.57 703.089 81.9483V82.2023ZM703.15 81.8162C703.089 81.8771 703.089 81.5519 703.15 81.6231V81.8162ZM703.222 81.491C703.15 81.5519 703.15 81.2877 703.222 81.3589V81.491ZM703.283 81.1556C703.222 81.2267 703.222 80.9625 703.283 81.0235V81.1556ZM704.199 75.5867V75.7188C704.138 75.7899 704.138 75.5257 704.199 75.5867ZM704.138 75.9221C704.199 75.9221 704.199 76.0542 704.138 76.0542C704.077 76.0542 704.067 75.9221 704.138 75.9221ZM704.199 77.0297C704.138 77.0297 704.138 76.8976 704.199 76.8976C704.26 76.8976 704.27 77.0297 704.199 77.0297ZM704.27 75.5257C704.199 75.5257 704.199 75.2615 704.27 75.3326V75.5257ZM707.03 72.2433C707.091 72.2433 707.091 72.3754 707.03 72.3754C706.969 72.3754 706.959 72.2433 707.03 72.2433ZM710.442 53.8598C710.442 53.7988 710.442 53.7988 710.503 53.7277V53.7988C710.503 53.8598 710.442 53.8598 710.442 53.9309V53.8598ZM710.37 53.9309C710.442 53.9309 710.442 54.063 710.37 54.063C710.299 54.063 710.309 53.9106 710.37 53.9106V53.9309ZM710.238 54.2561L710.309 54.185V54.2561L708.995 57.8637V57.6605L710.105 54.6118C710.164 54.4918 710.208 54.3657 710.238 54.2358V54.2561ZM708.924 57.7926V57.9247C708.924 57.9247 708.598 58.7783 708.466 59.1035C708.462 59.1533 708.44 59.2001 708.405 59.2356V59.1442L708.924 57.7926ZM708.405 58.1178V57.9247C708.405 57.8749 708.417 57.8259 708.44 57.7818C708.463 57.7376 708.497 57.6995 708.537 57.6706C708.525 57.8209 708.48 57.9667 708.405 58.0974V58.1178ZM708.863 56.9085V56.7764C708.913 56.4538 709.024 56.1436 709.189 55.8618V55.9939L708.863 56.9085ZM709.26 55.2114C709.189 55.2114 709.189 55.0793 709.26 55.0793C709.332 55.0793 709.321 55.2215 709.26 55.2215V55.2114ZM709.26 55.6077V55.7296C709.189 55.7398 709.189 55.6179 709.26 55.6179V55.6077ZM709.912 53.7683C709.973 53.7683 709.973 53.9004 709.912 53.9004C709.851 53.9004 709.841 53.7785 709.912 53.7785V53.7683ZM709.321 55.0793C709.26 55.0793 709.26 54.9471 709.321 54.9471C709.382 54.9471 709.393 55.0894 709.321 55.0894V55.0793ZM707.611 57.1727C707.611 57.1117 707.682 56.9085 707.743 56.9085V56.9796C707.743 57.0406 707.682 57.1117 707.611 57.2438V57.1727ZM707.549 57.4979V57.4369C707.549 57.4369 707.549 57.3048 707.611 57.3048V57.3759C707.614 57.4106 707.611 57.4456 707.6 57.4788C707.59 57.512 707.572 57.5427 707.549 57.569V57.4979ZM707.417 57.7011V57.8332C707.346 57.8434 707.346 57.7113 707.417 57.7113V57.7011ZM707.346 57.8942C707.417 57.8942 707.417 58.0263 707.346 58.0263C707.274 58.0263 707.285 57.9247 707.346 57.9247V57.8942ZM706.898 59.2051V59.1442L706.959 59.0222V59.0832C706.963 59.1179 706.96 59.153 706.949 59.1864C706.939 59.2197 706.921 59.2503 706.898 59.2763V59.2051ZM706.572 60.0588C706.633 60.0588 706.633 60.1909 706.572 60.1909C706.511 60.1909 706.501 60.0689 706.572 60.0689V60.0588ZM706.501 60.384V60.5161C706.44 60.5262 706.44 60.3941 706.501 60.3941V60.384ZM706.368 60.7092V60.8413C706.307 60.8514 706.307 60.7193 706.368 60.7193V60.7092ZM706.236 61.1055V61.0445L706.307 60.9124V60.9734C706.312 61.0104 706.307 61.048 706.295 61.0833C706.283 61.1185 706.263 61.1504 706.236 61.1766V61.1055ZM705.645 63.0058C705.655 62.8032 705.7 62.6038 705.778 62.4164C705.778 62.4774 705.839 62.4774 705.839 62.5485C705.839 62.6197 705.706 62.8737 705.645 63.0668V63.0058ZM705.452 63.7273V63.7883C705.38 63.8696 705.38 63.7375 705.452 63.7375V63.7273ZM705.38 63.8595V64.022C705.319 64.022 705.319 63.8696 705.38 63.8696V63.8595ZM705.319 64.0525V64.1846C705.248 64.1948 705.248 64.022 705.319 64.022V64.0525ZM705.126 64.6419C705.138 64.4833 705.179 64.3282 705.248 64.1846V64.3168C705.248 64.4489 705.187 64.5098 705.126 64.7029V64.6419ZM705.055 64.9062V65.0383C704.993 65.0383 704.993 64.9163 705.055 64.9163V64.9062ZM704.993 65.0992V65.2314C704.922 65.2415 704.922 65.1094 704.993 65.1094V65.0992ZM704.922 65.2314V65.3635C704.861 65.3736 704.861 65.2415 704.922 65.2415V65.2314ZM703.904 68.8999C703.918 68.6349 703.963 68.3724 704.036 68.1174L704.688 66.1561V66.3594C704.515 67.2572 704.252 68.1355 703.904 68.9812V68.8999ZM703.384 70.5361L703.843 69.032V69.2251L703.446 70.6682L703.384 70.7291V70.5361ZM703.313 70.8003C703.385 70.8003 703.385 70.9324 703.313 70.9934V70.8003ZM703.313 71.908C703.309 71.8724 703.313 71.8364 703.325 71.8027C703.338 71.7691 703.358 71.739 703.384 71.7149V71.847C703.384 71.908 703.446 71.9791 703.313 72.0401V71.908ZM703.252 72.3653C703.252 72.3491 703.258 72.3336 703.27 72.3221C703.281 72.3107 703.297 72.3043 703.313 72.3043V72.3653C703.252 72.3653 703.252 72.3653 703.252 72.4364V72.3653ZM703.048 72.9648H703.12V73.0258H703.048V72.9648ZM702.499 74.1843C702.489 74.0691 702.51 73.9535 702.56 73.8489V73.9201C702.569 74.032 702.548 74.1444 702.499 74.2453V74.1843ZM702.366 74.5705C702.366 74.5095 702.427 74.3774 702.427 74.3063V74.4384C702.432 74.4746 702.429 74.5114 702.418 74.5464C702.407 74.5814 702.39 74.6138 702.366 74.6416V74.5705ZM702.295 74.9058C702.295 74.8347 702.295 74.7737 702.366 74.7737V74.8347C702.329 74.8702 702.304 74.9164 702.295 74.9668V74.9058ZM702.162 75.6883V75.8204C702.101 75.7899 702.101 75.6578 702.162 75.6578V75.6883ZM702.101 75.8204V75.9525C702.04 75.922 702.04 75.7899 702.101 75.7899V75.8204ZM701.837 76.8367C701.908 76.8367 701.908 76.9688 701.837 77.0399V76.8367ZM701.837 77.1618V77.233C701.776 77.294 701.776 77.0297 701.837 77.0907V77.1618ZM701.776 71.9283V71.9893C701.643 71.9893 700.991 72.0604 700.757 72.0604L696.755 72.3145C696.49 72.3145 696.236 72.3856 695.971 72.3856H695.706C697.56 71.6539 699.932 71.8571 701.776 71.8571V71.9283ZM701.776 77.3651V77.4972C701.714 77.4261 701.714 77.294 701.776 77.294V77.3651ZM701.714 77.6903V77.8834C701.633 77.8122 701.633 77.6191 701.714 77.6191V77.6903ZM701.45 73.1071C700.431 73.0461 699.352 73.2392 698.232 73.2392H697.906V73.1782L698.232 73.1071L701.185 72.914H701.246C701.336 72.9262 701.425 72.9466 701.511 72.975V73.0461C701.501 73.05 701.49 73.0511 701.479 73.0493C701.468 73.0476 701.458 73.0429 701.45 73.036V73.1071ZM701.582 78.1882V78.2594H701.511L701.582 78.1882ZM696.49 72.7514L696.755 72.6905L701.551 72.4262V72.4872L696.49 72.7514ZM696.562 73.3408H696.623C696.562 73.412 696.429 73.412 696.358 73.412H696.164C696.289 73.3149 696.436 73.2518 696.592 73.229L696.562 73.3408ZM696.032 72.8226C696.032 72.7514 696.236 72.7514 696.297 72.8226H696.032ZM695.574 70.597V70.5259C695.565 70.4447 695.572 70.3625 695.594 70.2841C695.617 70.2056 695.655 70.1323 695.706 70.0686V70.1194C695.737 70.221 695.666 70.282 695.604 70.4852L695.574 70.597ZM695.767 69.8044V69.6723C695.789 69.3197 695.879 68.9746 696.032 68.656L696.103 68.717C696.063 69.0584 695.96 69.3893 695.798 69.6926L695.767 69.8044ZM695.9 70.8206V70.9527C695.869 70.8714 695.869 70.7393 695.93 70.7393L695.9 70.8206ZM696.103 68.5951V68.463C696.195 68.3817 696.195 68.5138 696.134 68.5138L696.103 68.5951ZM696.236 68.2089C696.164 68.2089 696.164 68.0056 696.236 68.0056C696.307 68.0056 696.327 68.087 696.266 68.087L696.236 68.2089ZM696.297 67.8735V67.9447C696.266 67.8634 696.266 67.7313 696.327 67.7922L696.297 67.8735ZM696.164 68.402V68.087C696.266 68.1886 696.266 68.3207 696.195 68.3207L696.164 68.402ZM696.236 69.5097C696.297 69.5097 696.297 69.5808 696.236 69.6418C696.175 69.7027 696.195 69.4284 696.266 69.4284L696.236 69.5097ZM696.358 67.8126V67.6805C696.353 67.6449 696.358 67.6088 696.37 67.5752C696.382 67.5416 696.403 67.5115 696.429 67.4874V67.6195C696.406 67.6524 696.392 67.691 696.388 67.7313L696.358 67.8126ZM696.358 69.2556C696.297 69.2556 696.297 69.1235 696.358 69.1235C696.419 69.1235 696.46 69.1743 696.388 69.1743L696.358 69.2556ZM696.755 64.1745V64.0424C696.816 64.0424 696.816 64.1745 696.755 64.1745V64.3066C696.725 64.2558 696.725 64.022 696.786 64.022L696.755 64.1745ZM696.755 66.4V66.4712C696.725 66.4203 696.725 66.2273 696.786 66.2882L696.755 66.4ZM696.694 64.3676V64.4997C696.653 64.3879 696.653 64.2558 696.725 64.2558L696.694 64.3676ZM696.694 66.5931V66.7252C696.653 66.6134 696.653 66.4813 696.725 66.4813L696.694 66.5931ZM696.623 64.5606V64.6216C696.592 64.581 696.592 64.459 696.653 64.459L696.623 64.5606ZM696.032 63.5444V63.3513L696.103 63.4123C696.109 63.4479 696.105 63.4842 696.093 63.518C696.08 63.5518 696.059 63.5818 696.032 63.6054V63.5444ZM695.9 63.8696V64.0017C695.869 63.9306 695.869 63.7985 695.93 63.7985L695.9 63.8696ZM696.562 64.6521V64.8554L695.116 70.0279C695.056 70.1975 695.032 70.3772 695.044 70.5564H695.116C695.116 70.8816 695.116 71.2068 694.718 71.2068V71.0137L696.562 64.6521ZM695.309 72.8429H695.38C695.523 72.8429 695.279 72.8429 695.34 72.7718L695.309 72.8429ZM695.309 73.5644V73.4323C695.411 73.3612 695.411 73.4933 695.34 73.4933L695.309 73.5644ZM694.128 72.6498H693.995C694.458 72.4832 694.951 72.414 695.441 72.4466H695.574C695.11 72.5521 694.634 72.5965 694.158 72.5787L694.128 72.6498ZM694.983 72.975V72.8429C695.075 72.7718 695.075 72.9039 695.014 72.9039L694.983 72.975ZM694.525 72.975V73.0461C694.439 73.0745 694.35 73.0949 694.26 73.1071H694.067C694.214 73.0067 694.38 72.9375 694.556 72.9039L694.525 72.975ZM694.657 70.221C694.657 70.5564 694.586 71.0747 694.393 71.2372L694.331 71.3084V71.1051C694.35 70.7532 694.436 70.4081 694.586 70.0889C694.688 69.9568 694.688 70.1194 694.688 70.1194L694.657 70.221ZM694.586 68.656L694.158 70.1194V69.9263C694.158 69.9263 694.423 68.9101 694.556 68.4833C694.556 68.4833 694.556 68.3512 694.617 68.3512L694.586 68.656ZM694.26 70.3531V70.4852C694.23 70.4141 694.23 70.282 694.291 70.282L694.26 70.3531ZM694.199 70.7495C694.128 70.7495 694.128 70.6173 694.199 70.6173C694.27 70.6173 694.291 70.6783 694.23 70.6783L694.199 70.7495ZM695.38 71.0747C695.391 71.0077 695.412 70.9427 695.441 70.8816V70.9425C695.523 70.9425 695.523 71.0035 695.411 71.0035L695.38 71.0747ZM695.503 70.6885C695.574 70.6885 695.574 70.7495 695.503 70.7495C695.431 70.7495 695.523 70.5462 695.523 70.6173L695.503 70.6885ZM694.688 68.087C694.686 67.9952 694.707 67.9043 694.749 67.8227V67.9548C694.741 68.0037 694.72 68.0495 694.688 68.087ZM694.881 67.4975V67.4264C694.883 67.2648 694.929 67.1068 695.014 66.9691V67.0707C694.998 67.2332 694.953 67.3916 694.881 67.5382V67.4975ZM695.666 64.6724V64.8045C695.604 64.8452 695.604 64.7131 695.666 64.7131V64.6724ZM695.604 64.8757V64.9367C695.523 64.9773 695.523 64.8452 695.604 64.9163V64.8757ZM695.533 65.0688C695.521 65.2274 695.48 65.3825 695.411 65.5261V65.3939C695.411 65.2618 695.472 65.2009 695.533 65.0078V65.0688ZM695.411 62.8432C695.472 62.8432 695.472 62.9753 695.411 62.9753C695.35 62.9753 695.34 62.8839 695.411 62.8839V62.8432ZM695.34 65.7903V65.5972L695.411 65.6582C695.411 65.7293 695.34 65.7903 695.34 65.9224V65.7903ZM695.279 63.4326V63.4936C695.207 63.6054 695.207 63.4123 695.279 63.4733V63.4326ZM695.279 65.9224V66.1155C695.207 66.1561 695.207 65.963 695.279 65.963V65.9224ZM695.207 63.5647V63.6969C695.146 63.7375 695.146 63.6054 695.207 63.6054V63.5647ZM695.207 66.1866V66.3187C695.146 66.3594 695.146 66.2273 695.207 66.2273V66.1866ZM695.075 63.8899C695.146 63.8899 695.146 64.022 695.075 64.022V63.8899ZM695.075 66.5728C695.072 66.4828 695.097 66.3941 695.146 66.3187V66.4407C695.151 66.4777 695.147 66.5153 695.134 66.5506C695.122 66.5858 695.102 66.6177 695.075 66.6439V66.5728ZM695.075 68.5442C695.146 68.5442 695.146 68.6764 695.075 68.6764C695.004 68.6764 695.014 68.5849 695.075 68.5849V68.5442ZM695.014 64.2863V64.4184C694.942 64.459 694.942 64.3269 695.014 64.3269V64.2863ZM694.881 64.7436V64.8757L694.81 64.8045L694.881 64.7436ZM694.81 67.5585C694.881 67.5585 694.881 67.6906 694.81 67.7516V67.5585ZM694.617 65.3939C694.617 65.2618 694.688 65.2009 694.749 65.0688V65.1297C694.738 65.2706 694.692 65.4066 694.617 65.5261V65.3939ZM694.617 65.5972V65.7293C694.556 65.77 694.556 65.6378 694.617 65.6378V65.5972ZM694.556 65.7903V65.9224C694.505 65.963 694.505 65.8309 694.556 65.8309V65.7903ZM694.505 66.0545V66.1764C694.423 66.1561 694.423 66.0545 694.505 66.0545ZM694.382 66.4407C694.382 66.3797 694.382 66.3797 694.444 66.3086V66.3797C694.444 66.4407 694.444 66.4407 694.382 66.5016V66.4407ZM694.179 67.0301H694.25C694.25 67.0301 694.25 67.1622 694.179 67.1622V67.0301ZM694.179 67.2232C694.25 67.2232 694.25 67.3553 694.179 67.3553C694.107 67.3553 694.097 67.2028 694.158 67.2028L694.179 67.2232ZM694.118 67.4874C694.179 67.4874 694.179 67.6195 694.118 67.6195C694.057 67.6195 694.026 67.4671 694.097 67.4671L694.118 67.4874ZM694.118 70.2414V70.3023C694.128 70.3962 694.103 70.4905 694.046 70.5665V70.5056C694.026 70.3531 694.026 70.282 694.097 70.221L694.118 70.2414ZM693.985 67.8126C693.985 67.7516 693.985 67.6195 694.046 67.6195V67.6906C694.05 67.7253 694.046 67.7603 694.036 67.7935C694.025 67.8267 694.008 67.8574 693.985 67.8837V67.8126ZM691.276 73.1681H691.073C691.144 73.1071 691.276 73.1071 691.276 73.1681ZM691.205 77.8122L691.338 77.487L690.879 80.2817L690.818 80.2207L691.205 77.8122ZM690.615 82.0092C690.617 81.4577 690.685 80.9085 690.818 80.3731H690.879L690.615 82.2023V82.0092ZM690.289 85.3628C690.31 84.3419 690.398 83.3234 690.553 82.3141C690.615 82.3141 690.615 82.3751 690.615 82.4462V82.5072L690.289 85.7185V85.3628ZM690.156 87.3241V87.5883C690.085 87.6391 690.085 87.253 690.156 87.3139V87.3241ZM690.156 87.9135C690.085 87.9135 690.085 87.7814 690.156 87.7814C690.228 87.7814 690.217 87.9034 690.156 87.9034V87.9135ZM690.217 86.7347C690.156 86.8058 690.156 86.2774 690.217 86.3384V86.7347ZM690.217 86.2164C690.156 86.2774 690.156 86.0132 690.217 86.0843V86.2164ZM691.735 77.172L691.012 82.0194V82.2125L690.553 86.8668V87.883C690.499 88.6035 690.499 89.3271 690.553 90.0476C690.39 89.381 690.292 88.7005 690.258 88.0151C690.248 87.7292 690.269 87.4431 690.319 87.1615C690.498 83.9104 690.872 80.673 691.439 77.4667C691.439 77.2736 691.572 77.0704 691.704 77.0704L691.735 77.172ZM691.602 74.6213L691.663 74.5501L691.735 74.6213H691.602ZM692.254 78.422V78.5541C692.254 78.8081 692.061 79.7227 692.061 79.987V79.7939C692.059 79.2863 692.124 78.7806 692.254 78.2899V78.422ZM692.58 76.7757C692.58 76.9789 692.386 77.7919 692.386 77.9545C692.386 78.1171 692.325 78.0866 692.325 78.1578V77.8224C692.386 77.4972 692.519 76.7147 692.519 76.7147H692.58V76.7757ZM692.845 77.4972C692.784 77.4972 692.784 77.3651 692.845 77.3651V77.4972ZM692.977 77.4972H692.916C692.915 77.3851 692.891 77.2743 692.845 77.172V77.1009C692.845 77.0399 692.916 76.3895 693.171 76.3895L692.977 77.4972ZM693.171 72.7819C693.171 72.8531 693.109 72.8531 693.109 72.7819C692.599 72.9565 692.069 73.0691 691.531 73.1173H691.338L691.531 73.0461C692.061 72.914 693.242 72.7209 693.242 72.7209H693.568C693.486 72.7108 693.242 72.7718 693.171 72.7718V72.7819ZM693.109 71.2779C693.109 71.41 692.916 71.41 692.845 71.41V71.3389C692.916 71.0746 692.916 70.4141 693.242 70.4141L693.171 70.221C693.204 70.1813 693.251 70.1559 693.303 70.1499L693.833 68.1886L693.894 67.9955L693.965 68.0565C693.758 69.1462 693.473 70.2195 693.109 71.2677V71.2779ZM693.965 70.6275V70.6885C693.967 70.7816 693.943 70.8735 693.894 70.9527V70.8206C693.894 70.7393 693.965 70.6783 693.965 70.6173V70.6275ZM693.833 71.1458C693.894 71.1458 693.894 71.2779 693.833 71.2779C693.771 71.2779 693.771 71.1356 693.833 71.1356V71.1458ZM693.894 71.0137V71.1356C693.833 71.1356 693.833 70.9425 693.894 71.0035V71.0137ZM696.786 74.164C695.93 74.3571 694.81 74.3571 693.965 74.5501H693.771V74.418H693.965C693.965 74.4091 693.963 74.4002 693.959 74.3921C693.956 74.3839 693.95 74.3767 693.944 74.3709C693.937 74.3651 693.929 74.3608 693.92 74.3584C693.911 74.356 693.902 74.3556 693.894 74.3571V74.2859C693.965 74.2859 694.026 74.2859 694.026 74.225C695.106 73.9476 696.201 73.7305 697.305 73.5746C697.305 74.0217 696.725 73.8896 696.786 74.1843V74.164ZM697.804 73.8998C697.733 73.8998 697.539 73.8998 697.468 73.8286C698.191 73.1173 700.523 73.5034 701.409 73.5034H701.48L701.409 73.5746C700.991 73.9506 698.16 73.8896 697.773 73.8896L697.804 73.8998ZM701.409 79.4585V79.6618C701.409 79.7227 701.348 80.3833 701.277 80.3833H701.215L701.409 79.4585ZM701.144 80.9016V81.0337C701.114 80.9625 701.052 80.8914 701.114 80.8914L701.144 80.9016ZM701.022 81.8263C701.012 81.6714 701.033 81.516 701.083 81.369V81.5011C701.093 81.6761 701.072 81.8515 701.022 82.0194V81.8263ZM700.951 82.0804C701.022 82.0804 701.022 82.2836 700.951 82.2836V82.0804ZM700.89 82.3446C700.919 82.3937 700.935 82.4499 700.935 82.5072C700.935 82.5645 700.919 82.6207 700.89 82.6698V82.3446ZM700.615 92.5577C700.554 92.5577 700.554 92.4256 700.615 92.4256C700.676 92.4256 700.727 92.5577 700.615 92.5577ZM700.615 92.1004V92.1613C700.615 92.2223 700.615 92.1004 700.615 92.1004ZM701.012 87.0192C700.951 87.0192 700.951 86.8871 701.012 86.8871C701.073 86.8871 701.114 86.9887 701.052 86.9887L701.012 87.0192ZM701.144 87.0802C701.073 87.0802 701.073 86.9583 701.144 86.9583C701.215 86.9583 701.246 87.0497 701.185 87.0497L701.144 87.0802ZM701.277 86.064C701.205 86.125 701.205 85.8607 701.277 85.8607V86.064ZM701.338 85.5355C701.277 85.5355 701.277 85.3425 701.338 85.3425V85.5355ZM701.409 85.3425C701.338 85.3425 701.338 85.1392 701.409 85.1392V85.3425ZM701.409 84.0925C701.338 84.0925 701.338 83.9706 701.409 83.9706V84.0925ZM701.409 83.7673V83.6352C701.511 83.6454 701.511 83.7775 701.45 83.7775L701.409 83.7673ZM701.47 83.0458C701.541 83.0458 701.541 83.1779 701.47 83.1779C701.399 83.1779 701.45 83.056 701.511 83.056L701.47 83.0458ZM701.541 83.8994C701.47 83.8994 701.47 83.7673 701.541 83.7673C701.613 83.7673 701.633 83.9096 701.633 83.9096L701.541 83.8994ZM701.602 83.4421C701.541 83.4421 701.541 83.31 701.602 83.31C701.663 83.31 701.714 83.4523 701.633 83.4523L701.602 83.4421ZM701.541 82.8527V82.7206C701.633 82.7308 701.633 82.8629 701.633 82.8629L701.541 82.8527ZM701.602 82.6495C701.541 82.6495 701.541 82.5174 701.602 82.5174C701.663 82.5174 701.714 82.6596 701.633 82.6596L701.602 82.6495ZM701.928 80.556C701.867 80.556 701.867 80.4239 701.928 80.4239C701.989 80.4239 702.04 80.5662 701.969 80.5662L701.928 80.556ZM701.409 81.0845C701.332 81.68 701.22 82.2705 701.073 82.8527L700.055 91.6329V94.5088L699.983 93.7873V90.4439C700.055 89.4277 700.309 88.2794 700.309 87.3038C700.32 87.2113 700.298 87.1181 700.248 87.0396L700.309 87.1005L700.778 83.6962L700.706 83.6352L700.411 86.379V86.4908V86.379V86.0538C700.411 85.9217 700.615 84.0925 700.747 83.371C700.747 83.31 700.808 82.8425 700.808 82.7816C700.808 82.7206 700.879 82.9137 700.94 82.9137C701.01 82.841 701.057 82.7489 701.073 82.6495L702.091 77.0805V76.8875L702.611 74.794C702.69 74.3704 702.799 73.9528 702.936 73.5441V73.9404L701.409 81.0845ZM702.427 78.7268V78.8589C702.427 78.8691 702.427 78.737 702.499 78.737L702.427 78.7268ZM702.224 80.363C702.295 80.363 702.295 80.556 702.224 80.6272V80.363ZM702.091 84.2246C702.03 84.2246 702.03 84.0315 702.091 84.0315V84.2246ZM702.091 82.4564V81.806C702.118 81.8301 702.138 81.8603 702.15 81.8939C702.163 81.9275 702.167 81.9636 702.162 81.9991C702.199 82.1528 702.199 82.3128 702.162 82.4665L702.091 82.4564ZM702.295 81.0133C702.27 81.257 702.226 81.4982 702.162 81.7349V81.5418C702.172 81.3161 702.217 81.0933 702.295 80.8812V81.0133ZM702.295 80.2308C702.356 80.2308 702.356 80.363 702.295 80.363C702.234 80.363 702.295 80.2817 702.366 80.2817L702.295 80.2308ZM702.356 80.7593C702.295 80.8203 702.295 80.4951 702.356 80.556V80.7593ZM702.356 79.9057C702.295 79.9057 702.295 79.7735 702.356 79.7735V79.9057ZM702.356 78.9911C702.427 78.9911 702.427 79.1232 702.356 79.1232C702.285 79.1232 702.366 79.0012 702.427 79.0012L702.356 78.9911ZM702.427 79.4382C702.488 79.4382 702.488 79.5703 702.427 79.5703C702.366 79.5703 702.427 79.4484 702.499 79.4484L702.427 79.4382ZM702.488 80.0378C702.488 80.2309 702.427 80.2918 702.427 80.4239V80.2817C702.419 80.1698 702.44 80.0577 702.488 79.9565V80.0378ZM702.488 78.5337C702.427 78.5947 702.427 78.3305 702.488 78.3305V78.5337ZM702.488 78.2695V78.0663C702.651 78.0765 702.651 78.2492 702.56 78.2492L702.488 78.2695ZM702.56 77.7411L703.283 74.5298V74.794L702.651 78.0155L702.56 77.7411ZM702.621 79.1232V78.9911C702.753 79.0012 702.753 79.1333 702.651 79.1333L702.621 79.1232ZM702.682 78.8589C702.621 78.8589 702.621 78.7268 702.682 78.7268V78.8589ZM702.753 78.6557C702.682 78.6557 702.682 78.5337 702.753 78.5337C702.824 78.5337 702.885 78.6659 702.824 78.6659L702.753 78.6557ZM703.018 77.0805V76.9586C703.15 76.9688 703.15 77.0907 703.089 77.0907L703.018 77.0805ZM703.079 76.8875C703.018 76.8875 703.018 76.7554 703.079 76.7554V76.8875ZM703.211 76.3692C703.15 76.4302 703.15 76.2981 703.211 76.2981V76.3692ZM703.283 75.9119V75.7798C703.415 75.7899 703.415 75.9221 703.354 75.9221L703.283 75.9119ZM703.344 75.6477C703.283 75.6477 703.283 75.5156 703.344 75.5156C703.405 75.5156 703.476 75.6578 703.415 75.6578L703.344 75.6477ZM703.476 75.2513C703.405 75.2513 703.405 75.1192 703.476 75.1192C703.547 75.1192 703.609 75.2615 703.547 75.2615L703.476 75.2513ZM703.537 74.9262C703.476 74.9262 703.476 74.794 703.537 74.794V74.9262ZM703.537 73.7473C703.501 73.9946 703.436 74.2368 703.344 74.4688V74.3367C703.346 74.0837 703.412 73.8353 703.537 73.6152V73.7473ZM703.609 73.351C703.537 73.351 703.537 73.2189 703.609 73.2189C703.68 73.2189 703.741 73.3612 703.67 73.3612L703.609 73.351ZM703.67 73.0969C703.609 73.0969 703.609 72.9648 703.67 72.9648C703.731 72.9648 703.812 73.1071 703.741 73.1071L703.67 73.0969ZM703.476 71.3897L703.344 71.5218V71.3897C703.405 71.1966 703.476 70.6072 703.537 70.6072L704.657 66.5423C704.79 66.2171 705.055 65.8919 704.983 65.5261L705.9 62.4774C706.103 62.142 706.032 61.888 706.165 61.5526L707.274 58.3515L707.346 58.2804C707.346 58.1483 707.611 57.4979 707.611 57.3658C707.804 56.9085 708.629 54.6118 708.853 54.1545C708.963 53.9247 709.096 53.7068 709.25 53.5041V53.6261L705.055 66.3594L704.922 66.6134L703.476 71.3897ZM708.262 59.4694V59.5303C708.272 59.6015 708.272 59.4084 708.334 59.4795L708.262 59.4694ZM708.201 59.5913V59.7234C708.201 59.7336 708.201 59.6015 708.273 59.6015L708.201 59.5913ZM708.069 59.9267V59.9571C708.073 59.9934 708.07 60.0302 708.06 60.0652C708.049 60.1001 708.031 60.1326 708.008 60.1604V60.0893C708.02 60.0596 708.038 60.0327 708.061 60.01C708.083 59.9874 708.11 59.9694 708.14 59.9571L708.069 59.9267ZM708.069 58.0873C708.13 58.0873 708.13 58.2194 708.069 58.2194C708.008 58.2194 708.079 58.0974 708.14 58.0974L708.069 58.0873ZM708.13 59.7945V59.8555C708.14 59.9571 708.14 59.7336 708.201 59.8047L708.13 59.7945ZM707.743 59.7234C707.672 59.7234 707.672 59.5913 707.743 59.5913C707.814 59.5913 707.875 59.7336 707.814 59.7336L707.743 59.7234ZM707.478 61.9896V62.1217C707.491 62.3861 707.399 62.645 707.224 62.8432V62.7822C707.279 62.5095 707.364 62.2437 707.478 61.9896ZM706.826 64.3472C706.806 64.5476 706.716 64.7345 706.572 64.8757C706.594 64.6257 706.659 64.3815 706.765 64.1542C706.772 64.235 706.793 64.314 706.826 64.3879V64.3472ZM706.368 65.4651C706.44 65.4651 706.44 65.5972 706.368 65.5972C706.297 65.5972 706.307 65.5057 706.368 65.5057V65.4651ZM706.368 63.8899V64.022C706.307 64.022 706.307 63.9306 706.368 63.9306V63.8899ZM706.175 64.6115V64.7436C706.103 64.7842 706.103 64.6521 706.175 64.6521V64.6115ZM706.042 67.8837C706.038 67.849 706.041 67.8138 706.052 67.7805C706.062 67.7472 706.08 67.7166 706.103 67.6906V67.7516C706.106 67.8435 706.085 67.9345 706.042 68.0158V67.8837ZM706.042 65.0078C706.103 65.0078 706.103 65.1297 706.042 65.1297C705.981 65.1297 705.971 65.0383 706.042 65.0383V65.0078ZM706.103 65.7293C706.175 65.7293 706.175 65.8614 706.103 65.8614C706.032 65.8614 706.042 65.77 706.103 65.77V65.7293ZM705.971 67.9548V68.2191L705.513 69.7231V69.5198L705.971 67.9548ZM705.706 66.2273C705.645 66.2273 705.645 66.0951 705.706 66.0951C705.767 66.0951 705.778 66.2273 705.706 66.2273ZM705.971 65.211C706.042 65.211 706.042 65.272 705.971 65.272C705.9 65.272 705.91 65.1704 705.971 65.2415V65.211ZM705.452 66.2273V66.1561C705.513 66.1561 705.513 66.2882 705.452 66.2882V66.2273ZM705.38 67.4061L704.362 70.9425V70.6783L705.38 67.0098L705.452 66.9488V67.0707C705.403 67.1973 705.379 67.3317 705.38 67.4671V67.4061ZM705.452 69.8958V70.1194C705.38 70.1194 705.38 69.9568 705.452 69.9568V69.8958ZM705.38 70.0889V70.221C705.319 70.3531 705.319 70.1194 705.38 70.1194V70.0889ZM705.187 69.3674V69.3064C705.248 69.3064 705.248 69.4284 705.187 69.4284V69.3674ZM704.729 70.2922V70.4243C704.688 70.4852 704.688 70.3531 704.688 70.3531L704.729 70.2922ZM704.596 73.1681C704.601 73.2028 704.597 73.2379 704.587 73.2712C704.576 73.3046 704.559 73.3352 704.535 73.3612V73.3002C704.535 73.229 704.535 73.2291 704.596 73.1681ZM704.464 73.4933V73.5644C704.477 73.7695 704.431 73.974 704.332 74.1538V74.0217C704.347 73.8396 704.391 73.6611 704.464 73.4933ZM704.006 71.9893V71.8571C704.067 71.8571 704.067 71.9893 704.006 71.9893ZM704.138 70.6783C704.199 70.6783 704.199 70.8104 704.138 70.8104C704.077 70.8104 704.067 70.6783 704.138 70.6783ZM704.199 71.3389C704.138 71.3389 704.138 71.2068 704.199 71.2068V71.3389ZM704.27 71.1356C704.199 71.1356 704.199 71.0035 704.27 71.0035V71.1356ZM704.332 76.5724C704.27 76.5724 704.27 76.4403 704.332 76.4403V76.5724ZM704.332 75.2615C704.27 75.2615 704.27 75.1294 704.332 75.1294V75.2615ZM704.464 75.7899V75.6578C704.486 75.3052 704.576 74.9602 704.729 74.6416V74.7737C704.706 75.1261 704.616 75.4709 704.464 75.7899ZM704.596 77.0907C704.535 77.1618 704.535 76.9688 704.596 76.9688V77.0907ZM704.729 76.6436C704.657 76.6436 704.657 76.5115 704.729 76.5115V76.6436ZM704.79 76.1151V76.2168C704.789 76.2858 704.768 76.353 704.729 76.4098V76.2168C704.724 76.1821 704.728 76.1469 704.738 76.1136C704.749 76.0803 704.766 76.0496 704.79 76.0237V76.1151ZM704.403 74.9363V75.2005C704.347 75.1241 704.322 75.0301 704.332 74.9363V74.8042L704.688 73.1681L704.749 73.036L704.403 74.9363ZM704.861 70.4141C704.922 70.4141 704.922 70.5462 704.861 70.5462C704.8 70.5462 704.79 70.4141 704.861 70.4141ZM704.922 75.6578C704.932 75.7697 704.911 75.8821 704.861 75.983V75.8509C704.859 75.7591 704.88 75.6683 704.922 75.5867V75.6578ZM704.993 75.5257C704.922 75.5257 704.922 75.3326 704.993 75.3326V75.5257ZM705.055 75.2615C704.993 75.2615 704.993 75.0684 705.055 75.0684V75.2615ZM705.187 71.725C705.126 71.725 705.126 71.5929 705.187 71.5929C705.248 71.5929 705.248 71.725 705.187 71.725ZM705.187 70.8714V70.7393C705.248 70.7393 705.248 70.8714 705.187 70.8714ZM705.248 70.6783C705.187 70.7393 705.187 70.5462 705.248 70.6173C705.309 70.6885 705.319 70.6783 705.248 70.6783ZM705.248 68.5138C705.319 68.5138 705.319 68.6459 705.248 68.6459C705.177 68.6459 705.187 68.5138 705.248 68.5138ZM705.319 69.0422C705.248 69.0422 705.248 68.9101 705.319 68.9101V69.0422ZM705.38 73.8896C705.319 73.8896 705.319 73.7575 705.38 73.7575V73.8896ZM705.452 73.6965C705.38 73.6965 705.38 73.5644 705.452 73.5644V73.6965ZM705.452 73.4933V73.3612C705.513 73.3612 705.513 73.4933 705.452 73.4933ZM705.513 73.229V73.1071C705.584 73.1071 705.584 73.229 705.513 73.229ZM705.38 71.1356V70.9425L707.091 65.1704V65.3025L705.38 71.1356ZM705.971 71.0035C705.91 71.0035 705.91 70.8714 705.971 70.8714C706.032 70.8714 706.042 71.0035 705.971 71.0035ZM705.971 72.3145C705.91 72.3145 705.91 72.1823 705.971 72.1823C706.032 72.1823 705.91 72.0502 705.971 72.0502C706.032 72.0502 706.042 72.1823 705.971 72.1823C705.9 72.1823 706.042 72.3145 705.971 72.3145ZM706.042 71.9893C705.971 71.9893 705.971 71.8571 706.042 71.8571C706.114 71.8571 706.103 71.9893 706.042 71.9893ZM706.439 70.7393C706.368 70.7393 706.368 70.6174 706.439 70.6783V70.7393ZM706.694 69.7231C706.663 70.0141 706.598 70.3005 706.501 70.5767V70.3735C706.536 70.1063 706.601 69.8439 706.694 69.591V69.7231ZM706.765 69.5198C706.694 69.591 706.694 69.3877 706.765 69.4589V69.5198ZM706.236 68.8694V68.6764L707.947 63.3005V63.6257L706.236 68.8694ZM708.008 63.6257V63.6969C708.017 63.8518 707.996 64.007 707.947 64.1542V64.022C707.947 63.9009 707.967 63.7806 708.008 63.6664V63.6257ZM707.875 64.1542V64.2863C707.88 64.3209 707.876 64.3561 707.866 64.3894C707.855 64.4227 707.838 64.4534 707.814 64.4793V64.3472C707.816 64.2909 707.838 64.237 707.875 64.1948V64.1542ZM707.03 68.6764V68.5442C707.091 68.5849 707.091 68.717 707.03 68.717V68.6764ZM707.091 68.4731C707.03 68.5442 707.03 68.341 707.091 68.4121V68.4731ZM707.162 68.28C707.091 68.28 707.091 68.1479 707.162 68.1479V68.28ZM707.346 67.4975C707.371 67.7021 707.328 67.9093 707.224 68.087V67.9548C707.224 67.8837 707.346 67.4975 707.346 67.3654V67.4975ZM707.417 67.3654C707.346 67.3654 707.346 67.2333 707.417 67.2333V67.3654ZM707.478 67.1622C707.417 67.1622 707.417 67.0301 707.478 67.0301V67.1622ZM707.611 66.5728V66.4407C707.682 66.4813 707.682 66.6134 707.611 66.6134V66.5728ZM707.743 66.3187C707.682 66.3187 707.682 66.1866 707.743 66.1866C707.804 66.1866 707.814 66.3594 707.743 66.3594V66.3187ZM708.334 64.3472C708.329 64.3971 708.308 64.4438 708.273 64.4793C708.268 64.4447 708.271 64.4095 708.282 64.3762C708.293 64.3429 708.31 64.3122 708.334 64.2863V64.3472ZM708.405 63.9509C708.405 64.083 708.405 64.083 708.334 64.1542V64.1237C708.334 64.0627 708.405 63.9916 708.405 63.9306V63.9509ZM709.423 60.7498C709.423 60.8108 709.423 60.8819 709.362 60.8819C709.358 60.8457 709.361 60.8089 709.371 60.7739C709.382 60.7389 709.4 60.7065 709.423 60.6787V60.7498ZM709.556 60.4856C709.484 60.4856 709.484 60.3535 709.556 60.3535V60.4856ZM710.411 57.4369L706.867 68.3817V68.087L707.387 66.2476C707.824 65.0899 708.198 63.9094 708.507 62.7111L710.411 57.3454V57.4369ZM708.761 60.3941L708.894 60.4653C708.833 60.0689 709.087 60.0689 709.087 59.8047C709.158 59.8047 709.087 59.8657 709.087 59.9368V59.9571C709.031 60.2493 708.945 60.5353 708.833 60.8108L708.761 60.9734C708.761 60.9734 708.761 60.8413 708.7 60.8413C708.639 60.8413 708.761 60.5262 708.761 60.3941ZM708.761 59.9571C708.822 59.9571 708.822 60.0893 708.761 60.0893C708.7 60.0893 708.761 59.9571 708.761 59.9571ZM709.545 58.2499C709.569 58.2777 709.587 58.3101 709.597 58.3451C709.608 58.3801 709.611 58.4169 709.607 58.4531C709.52 58.9385 709.344 59.4036 709.087 59.825C709.098 59.689 709.074 59.5523 709.016 59.4287L709.148 59.4998C709.19 59.0474 709.34 58.6117 709.586 58.2296L709.545 58.2499ZM709.352 58.321V58.1889C709.413 58.1889 709.413 58.321 709.352 58.321V58.4531C709.321 58.4328 709.321 58.3007 709.393 58.3007L709.352 58.321ZM709.545 59.1035C709.553 59.0546 709.574 59.0089 709.607 58.9714V59.1645L708.497 62.3148V61.9896C708.766 60.9883 709.131 60.0151 709.586 59.0832L709.545 59.1035ZM709.871 57.2743C709.932 57.3353 709.932 57.4064 709.932 57.5284V57.6605L709.8 57.5995C709.871 57.8637 709.678 57.9857 709.678 58.2499C709.607 58.2499 709.607 58.1889 709.607 58.1178C709.612 57.8044 709.719 57.5012 709.912 57.254L709.871 57.2743ZM710.065 57.7316V57.7926C710.027 57.9548 709.961 58.1095 709.871 58.2499V58.1889C709.877 58.0978 709.9 58.0087 709.94 57.9267C709.981 57.8447 710.037 57.7715 710.105 57.7113L710.065 57.7316ZM709.8 58.321V58.382C709.797 58.5647 709.755 58.7447 709.678 58.9104V58.8393C709.7 58.6516 709.755 58.4693 709.841 58.3007L709.8 58.321ZM710.268 57.2032C710.197 57.2032 710.197 57.0711 710.268 57.0711C710.34 57.0711 710.37 57.1828 710.309 57.1828L710.268 57.2032ZM710.401 56.939C710.33 56.939 710.33 56.8068 710.401 56.8068C710.472 56.8068 710.503 56.9085 710.442 56.9085L710.401 56.939ZM710.329 56.4207V56.3495C710.329 56.3406 710.331 56.3317 710.335 56.3236C710.339 56.3154 710.344 56.3082 710.351 56.3024C710.358 56.2966 710.366 56.2923 710.374 56.2899C710.383 56.2875 710.392 56.2871 710.401 56.2886C710.4 56.3277 710.389 56.3661 710.37 56.4004L710.329 56.4207ZM710.462 56.6747V56.8068C710.442 56.7865 710.442 56.6544 710.503 56.6544L710.462 56.6747ZM710.462 57.2032V57.0711C710.564 57.0507 710.564 57.1828 710.503 57.1828L710.462 57.2032ZM710.523 56.4817C710.462 56.4817 710.462 56.3495 710.523 56.3495C710.584 56.3495 710.635 56.4613 710.564 56.4613L710.523 56.4817ZM711.053 53.2805C711.053 54.3679 710.228 55.313 710.207 56.38C710.222 56.4393 710.243 56.4972 710.268 56.5528C710.198 56.8426 710.11 57.1277 710.004 57.4064C709.955 57.3272 709.93 57.2353 709.932 57.1422C709.932 57.0101 709.932 57.0101 710.065 57.0101V56.4004C709.871 56.5325 710.004 56.9898 709.739 56.9898C709.739 56.9898 709.739 57.0507 709.739 57.0914C709.724 57.1446 709.724 57.2008 709.739 57.254V57.315C709.73 57.2748 709.73 57.2332 709.739 57.193C709.724 57.4668 709.639 57.7324 709.494 57.9653V57.9247C709.494 57.7926 709.566 57.7316 709.566 57.5995V57.5284C708.963 58.7606 708.498 60.0557 708.181 61.39V61.5933L708.252 61.5221V61.5933C708.252 61.7254 708.181 61.8575 708.181 61.9896C708.403 61.6516 708.561 61.2764 708.649 60.8819C708.71 60.9429 708.71 60.9429 708.71 61.014L708.649 61.075L707.987 63.1074V63.0363C707.987 62.8432 708.12 62.6501 708.12 62.4469C708.124 62.4122 708.121 62.377 708.11 62.3437C708.1 62.3104 708.082 62.2798 708.059 62.2538L708.181 62.3148V62.2945C708.181 62.2233 708.12 62.1014 708.12 62.0302L708.059 62.1014L707.987 62.0302C707.988 62.0995 707.967 62.1671 707.926 62.2233L707.987 62.2945V62.3554C707.987 62.3554 707.926 62.6908 707.926 62.7518H707.794C707.855 63.016 707.661 62.8839 707.661 63.077V63.1481L707.723 63.077V63.2091C707.605 63.8632 707.41 64.5012 707.142 65.1094V64.9163L707.59 63.4733V63.3412L706.154 67.6703L706.083 67.5992C706.092 67.5487 706.117 67.5025 706.154 67.4671C706.154 67.4061 706.215 67.1419 706.215 67.0707L708.761 59.3474L708.833 59.2153L711.063 53.3212L711.124 53.1891L711.053 53.2805ZM708.497 60.7396V60.8717L708.425 61.0039V60.9734C708.416 60.9247 708.421 60.8743 708.441 60.8289C708.462 60.7835 708.495 60.7453 708.537 60.7193L708.497 60.7396ZM708.364 61.075V61.136C708.37 61.1715 708.366 61.2079 708.353 61.2416C708.341 61.2754 708.32 61.3055 708.293 61.329V61.4612C708.232 61.4612 708.232 61.329 708.293 61.329V61.2681C708.289 61.2255 708.298 61.1828 708.318 61.145C708.337 61.1072 708.368 61.0759 708.405 61.0547L708.364 61.075Z" fill="#5E1B3C"/>
<path d="M682.539 65.2317C682.609 65.2317 682.609 65.0995 682.539 65.0386V65.2317Z" fill="#5E1B3C"/>
<path d="M707.874 62.6199V62.4878C707.815 62.4878 707.815 62.6199 707.874 62.6199Z" fill="#5E1B3C"/>
<path d="M680.309 65.0996C680.379 65.0386 680.379 64.9675 680.379 64.8354V64.7744C680.324 64.8504 680.299 64.9447 680.309 65.0386V65.0996Z" fill="#5E1B3C"/>
<path d="M679.82 68.6459L680.788 64.7334C680.574 65.5769 680.37 66.4407 680.116 67.2638L679.82 68.6459Z" fill="#5E1B3C"/>
<path d="M680.97 62.8128V62.6807C680.9 62.6807 680.9 62.8737 680.97 62.8128Z" fill="#5E1B3C"/>
<path d="M681.032 62.5487V62.6096C681.094 62.4447 681.118 62.2673 681.102 62.0914V61.9897C681.102 62.0609 681.032 62.3251 681.032 62.4572V62.5487Z" fill="#5E1B3C"/>
<path d="M681.562 69.6216V69.8147C681.621 69.7537 681.621 69.6216 681.562 69.6216Z" fill="#5E1B3C"/>
<path d="M680.705 68.3105C680.635 68.3105 680.635 68.5138 680.705 68.5138V68.3105Z" fill="#5E1B3C"/>
<path d="M684.32 59.7947V59.6626C684.25 59.6626 684.25 59.7947 684.32 59.7947Z" fill="#5E1B3C"/>
<path d="M680.768 68.0872C680.837 68.0872 680.837 67.9551 680.768 67.9551V68.0872Z" fill="#5E1B3C"/>
<path d="M679.586 71.3899H679.655V71.2578L679.586 71.3899Z" fill="#5E1B3C"/>
<path d="M680.706 68.0869V68.28C680.766 68.2495 680.766 68.0869 680.706 68.0869Z" fill="#5E1B3C"/>
<path d="M688.191 55.8011C688.302 55.6343 688.432 55.4808 688.578 55.3438C689.698 54.4901 694.749 51.6752 696.724 51.4821C696.724 51.35 697.111 51.2789 697.111 51.2789V51.2179C697.079 51.1804 697.058 51.1347 697.05 51.0858C697.778 50.6582 698.579 50.3688 699.413 50.2322C699.739 49.7749 700.991 49.9679 700.991 49.2159C700.991 47.5798 696.266 47.2546 695.472 47.3258L689.891 47.0615C688.191 46.9904 687.335 45.2222 685.563 45.2222C685.034 45.2222 683.73 45.2222 683.598 45.8116L682.671 49.4192C682.671 49.4802 682.539 49.6123 682.539 49.6123L675.523 52.041C675.407 52.0317 675.291 52.0527 675.187 52.102C674.783 52.202 674.388 52.3345 674.005 52.4983C673.412 52.4746 672.817 52.5189 672.234 52.6305C671.582 53.2199 671.714 54.6629 671.714 55.3743C671.714 57.1425 672.57 60.4554 674.861 60.4554C676.511 60.4554 678.934 58.2299 680.115 57.3051C680.248 57.3051 680.309 57.3762 680.309 57.5083C680.309 58.5246 679.586 59.6018 679.525 60.6485L675.716 76.9081L674.993 81.6234C674.886 82.2747 674.841 82.935 674.861 83.5949V84.3469C674.932 84.8042 675.258 85.7188 675.879 85.7188C677.193 85.7188 676.409 82.1823 676.898 81.6539L676.959 81.5929V81.9892L677.03 81.786L679.82 68.697L677.488 78.0564C677.488 78.1276 677.488 78.2597 677.356 78.2597V78.1276L678.802 71.3087V71.0546L679.912 66.7865V66.5934L679.851 66.7255V66.6544C679.896 66.2075 680.006 65.7694 680.177 65.3536V65.4146C680.177 65.8109 679.912 66.0751 679.912 66.4308V66.4918L680.309 65.3841V65.191L680.248 65.252V65.0386C680.285 64.8536 680.35 64.6754 680.441 64.5101V64.7032L680.9 63.0671V62.874L680.838 62.9451V62.813C680.86 62.4604 680.95 62.1154 681.103 61.7968L681.164 61.9289L682.804 56.36H682.865L680.828 64.7032C680.95 64.2764 681.052 63.8293 681.205 63.4329L683.109 56.5531C683.107 56.4764 683.124 56.4003 683.157 56.3313C683.191 56.2623 683.241 56.2024 683.303 56.1568V56.2279C683.254 56.5758 683.166 56.9168 683.038 57.2441L678.741 73.8797L678.272 76.3085V76.3695C678.272 76.3784 678.274 76.3873 678.278 76.3954C678.281 76.4036 678.287 76.4108 678.294 76.4166C678.3 76.4225 678.308 76.4267 678.317 76.4291C678.326 76.4315 678.335 76.432 678.344 76.4305C678.364 75.9825 678.453 75.5403 678.608 75.1195L679.627 70.7396L679.759 70.3433C679.891 70.4754 679.83 70.8717 679.83 70.9327L679.891 70.7396L683.771 56.3905C683.832 56.1872 683.893 55.9332 684.026 55.8722C683.639 57.173 683.17 58.7481 682.845 60.12V60.2521L680.879 67.5893V67.8535L683.242 59.2054V59.5306L681.796 64.6118V64.876L682.977 60.6891L683.038 60.8111V60.4859L684.423 55.7096L684.484 55.6385H684.555C684.433 56.0024 684.345 56.3765 684.291 56.7563V56.9088C684.555 56.5734 684.555 55.984 684.749 55.5267C684.81 55.5978 684.81 55.5978 684.81 55.6588C684.81 56.5124 683.792 57.6913 684.026 58.4738C683.688 59.3891 683.425 60.3305 683.242 61.2887C683.239 61.3806 683.26 61.4716 683.303 61.5529C683.551 60.3381 683.926 59.1527 684.423 58.0165V58.2197L683.242 62.6708V62.8029L684.616 58.0876L684.749 57.7522H684.81C684.81 57.9555 684.749 58.1486 684.749 58.4128C684.749 58.4208 684.75 58.4287 684.753 58.4361C684.757 58.4435 684.761 58.4502 684.767 58.4559C684.772 58.4616 684.779 58.466 684.787 58.4691C684.794 58.4722 684.802 58.4738 684.81 58.4738C684.81 58.5449 684.749 58.738 684.749 58.7989V58.5449C684.555 58.6059 684.555 58.8701 684.555 59.0022V59.1343L684.616 59.0632V59.4595L683.303 64.5406L684.423 60.8009V61.1972L683.303 64.8353V64.6422C683.292 64.7092 683.271 64.7742 683.242 64.8353C683.109 65.0995 682.783 66.4714 682.712 66.7357C682.433 67.3709 682.215 68.031 682.06 68.7071C682.06 68.7681 681.928 68.9002 681.928 68.9612C681.794 69.2912 681.685 69.6309 681.602 69.9774V69.7742C681.531 69.8453 681.531 69.9774 681.47 70.0384V70.0181L681.867 68.0466V67.7925L680.747 72.3757V72.5078C680.737 72.5078 680.728 72.506 680.72 72.5024C680.711 72.4988 680.703 72.4936 680.696 72.487C680.69 72.4804 680.685 72.4725 680.681 72.4639C680.677 72.4553 680.675 72.446 680.675 72.4367C680.675 72.2436 680.747 72.1115 680.747 71.9083V71.7863C680.676 72.1657 680.567 72.5368 680.421 72.894C680.421 72.894 680.421 73.0261 680.35 73.0261V72.3046C680.171 72.705 680.037 73.1243 679.953 73.5545C679.83 74.2049 679.494 75.7191 679.494 75.7191V75.841C679.759 75.5159 679.952 74.0728 680.156 74.0728H680.217C680.236 74.1071 680.247 74.1454 680.248 74.1846C680.391 73.6638 680.589 73.1596 680.838 72.6806H680.9C680.925 72.683 680.95 72.6906 680.973 72.7028C680.996 72.715 681.016 72.7316 681.032 72.7517V72.4875C681.141 72.1698 681.274 71.8607 681.429 71.5627L681.49 71.5018L686.806 58.6668L688.191 55.8011ZM676.898 80.5563C676.826 80.6275 676.826 80.3023 676.898 80.3633V80.5563ZM676.959 80.3023C676.898 80.3633 676.898 79.906 676.959 79.9669V80.3023ZM676.959 79.906V79.6417C677.03 79.6417 677.03 79.845 676.959 79.906ZM677.03 79.5808V79.3165C677.091 79.3165 677.091 79.5096 677.03 79.5808ZM677.091 79.1844V78.9812C677.193 79.0523 677.193 79.1844 677.091 79.1844ZM677.223 78.4629C677.233 78.5781 677.212 78.6937 677.162 78.7983V78.6662C677.153 78.551 677.174 78.4353 677.223 78.3308V78.4629ZM677.284 78.2089C677.223 78.2089 677.223 77.9446 677.284 77.9446V78.2089ZM677.356 77.8735C677.284 77.8735 677.284 77.6804 677.356 77.6804V77.8735ZM677.356 77.5483V77.3451C677.417 77.3451 677.417 77.5483 677.356 77.5483ZM677.417 77.2841V77.091C677.488 77.091 677.488 77.2841 677.417 77.2841ZM677.885 74.9265V74.7334C677.946 74.7334 677.946 74.8655 677.885 74.9265ZM678.079 74.0728C678.018 74.0728 678.018 73.9407 678.079 73.9407V74.0728ZM678.608 71.7863C678.537 71.7863 678.537 71.6542 678.608 71.6542C678.68 71.6542 678.669 71.7863 678.608 71.7863ZM678.802 67.132C678.741 67.132 678.741 66.9999 678.802 66.9999V67.132ZM679.128 69.4896C679.126 69.7427 679.059 69.9911 678.934 70.2112V70.1197C678.935 69.844 679.001 69.5723 679.128 69.327V69.4896ZM679.199 69.2966C679.128 69.2966 679.128 69.1644 679.199 69.1644V69.2966ZM679.199 69.0933V68.9002C679.229 68.9002 679.229 69.1035 679.229 69.1035L679.199 69.0933ZM679.331 68.636C679.26 68.636 679.26 68.5141 679.331 68.5141C679.403 68.5141 679.392 68.636 679.331 68.636ZM679.525 67.9856C679.453 67.9856 679.453 67.7925 679.525 67.7925V67.9856ZM679.586 67.4572V67.7214L679.525 67.6604C679.525 67.5283 679.586 67.5283 679.586 67.3962V67.4572ZM679.657 67.2031C679.586 67.2031 679.586 67.071 679.657 67.071C679.728 67.071 679.718 67.2031 679.657 67.2031ZM679.79 66.8678C679.718 66.8678 679.718 66.7357 679.79 66.7357C679.861 66.7357 679.851 66.8678 679.79 66.8678ZM679.912 69.9165V69.8148H679.983C679.983 69.886 679.983 69.9469 679.912 69.9469V69.9165ZM683.303 59.2664C683.242 59.2664 683.242 59.1445 683.303 59.1445V59.2664ZM689.107 52.8439C689.046 52.8439 689.046 52.7118 689.107 52.7118C689.168 52.7118 689.179 52.8439 689.107 52.8439ZM689.107 52.5796C689.046 52.5796 689.046 52.4475 689.107 52.4475C689.168 52.4475 689.179 52.5288 689.107 52.5288V52.5796ZM689.179 52.5085C689.107 52.5085 689.107 52.3764 689.179 52.3764V52.5085ZM689.566 52.3764H689.698C689.698 52.3967 689.566 52.3967 689.566 52.3256V52.3764ZM689.698 51.8581C689.637 51.8581 689.637 51.726 689.698 51.726C689.759 51.726 689.759 51.8276 689.698 51.8276V51.8581ZM689.637 52.6406H689.83C689.83 52.6609 689.637 52.6609 689.637 52.5898V52.6406ZM689.953 51.787H689.891L689.953 51.726V51.787ZM690.747 51.4618V51.4008H690.94L690.747 51.4618ZM691.012 51.4008C691.073 51.3297 691.205 51.3297 691.205 51.4008H691.012ZM691.47 51.5939H691.449V51.5329L691.47 51.5939ZM691.602 51.5329H691.735C691.796 51.5431 691.531 51.5431 691.602 51.4821V51.5329ZM692.06 51.5329H691.928C691.928 51.4618 692.06 51.4618 692.06 51.4618V51.5329ZM692.193 51.4618H692.325C692.325 51.4821 692.193 51.4821 692.193 51.411V51.4618ZM692.651 51.4618H692.784C692.784 51.4821 692.651 51.4821 692.651 51.411V51.4618ZM693.048 51.5329L692.916 51.4618C692.977 51.4008 693.109 51.4618 693.17 51.4618H693.303C693.242 51.4821 693.17 51.4821 693.048 51.4821V51.5329ZM691.449 51.35L691.388 51.2789C691.582 51.2179 691.786 51.1468 692.05 51.0858C692.702 51.0858 693.619 51.0147 694.413 51.0147C694.632 51.0031 694.853 51.0271 695.065 51.0858C693.856 51.1081 692.649 51.1963 691.449 51.35ZM696.775 49.9679H696.898C696.847 50.0391 696.724 50.0391 696.724 49.9679H696.775ZM693.099 49.3785H693.883C694.474 49.3785 695.258 49.5106 695.849 49.4497C696.488 49.4979 697.124 49.5861 697.753 49.7139C697.813 49.7134 697.873 49.7248 697.929 49.7475C697.985 49.7702 698.036 49.8036 698.079 49.846H697.885C697.291 49.8134 696.7 49.7455 696.113 49.6427L695.981 49.5818C694.967 49.4701 693.946 49.4259 692.926 49.4497L693.099 49.3785ZM691.124 49.5818H690.991C690.94 49.5106 691.073 49.5106 691.073 49.5818H691.124ZM690.665 49.5818C690.665 49.6428 690.533 49.6428 690.533 49.5818H690.665ZM690.339 49.6427C690.401 49.7139 690.003 49.7139 690.075 49.6427H690.339ZM689.942 49.7139C689.942 49.7749 689.749 49.7749 689.749 49.7139H689.942ZM693.619 49.846C694.474 49.846 696.378 49.9679 696.378 49.9679H696.511C694.474 49.9679 692.6 50.2322 690.665 50.3643V50.4354C690.665 50.4354 690.665 50.4354 690.665 50.3643C690.075 50.3643 689.484 50.4354 688.883 50.4354H688.68C690.27 49.993 691.918 49.7942 693.568 49.846H693.619ZM689.026 52.4577H688.832C688.843 52.3967 688.975 52.3967 688.975 52.4577H689.026ZM688.435 52.5288C688.334 52.5782 688.221 52.5993 688.109 52.5898H688.038C688.17 52.5898 688.242 52.5288 688.303 52.5288H688.435ZM687.417 50.6895C687.417 50.6285 687.875 50.5574 688.069 50.5574H688.272C688.008 50.6934 687.714 50.7631 687.417 50.7606V50.6895ZM687.936 52.7219C687.875 52.7219 687.875 52.5898 687.936 52.5898C687.997 52.5898 687.926 52.7219 687.855 52.7219H687.936ZM687.804 52.7219C687.743 52.7219 687.743 52.5898 687.804 52.5898C687.865 52.5898 687.794 52.7219 687.722 52.7219H687.804ZM687.284 50.6895H687.346L687.284 50.7606L684.138 51.6041H683.934C684.966 51.1213 686.07 50.8123 687.203 50.6895H687.284ZM687.284 52.9252C687.213 52.9252 687.213 52.7931 687.284 52.7931C687.356 52.7931 687.264 52.9252 687.203 52.9252H687.284ZM683.68 51.6752H683.812C683.741 51.8683 683.344 51.8683 683.15 51.8683H683.018C683.069 51.8276 683.527 51.6752 683.598 51.6752H683.68ZM680.044 52.8439V52.915L679.983 52.8439H680.044ZM679.718 55.4657C679.657 55.4657 679.657 55.3336 679.718 55.3336C679.779 55.3336 679.79 55.4759 679.718 55.4759V55.4657ZM680.441 64.439V64.2358C680.502 64.2459 680.502 64.4492 680.441 64.4492V64.439ZM679.912 55.293H679.851L679.912 55.232C680.248 55.0999 680.93 54.8966 680.93 54.8966H681.134C680.754 55.1126 680.341 55.2637 679.912 55.3438V55.293ZM680.838 52.8743C680.838 52.7422 680.9 52.8032 680.971 52.8032H681.032C681.032 52.8032 680.9 52.8032 680.9 52.8743H680.838ZM680.838 52.539L680.767 52.6101C680.681 52.6385 680.592 52.6589 680.502 52.6711V52.6101C680.627 52.5455 680.761 52.5009 680.9 52.478C681.429 52.2748 682.671 51.8886 682.743 51.8886H682.865C682.231 52.2284 681.547 52.4652 680.838 52.5898V52.539ZM681.429 52.539V52.6711C681.358 52.7219 681.358 52.5898 681.429 52.5898V52.539ZM681.358 52.6711C681.331 52.692 681.31 52.7182 681.294 52.7479C681.278 52.7777 681.269 52.8103 681.266 52.8439H681.205C681.205 52.7727 681.266 52.7727 681.337 52.7727L681.358 52.6711ZM682.142 54.8357H682.284C682.284 54.9474 682.142 54.9474 682.142 54.8763V54.8357ZM682.407 54.8357C682.346 54.8357 682.346 54.7036 682.407 54.7036C682.468 54.7036 682.478 54.8763 682.407 54.8763V54.8357ZM683.73 54.2463C683.659 54.2463 683.659 54.1141 683.73 54.1141C683.802 54.1141 683.792 54.2971 683.73 54.2971V54.2463ZM684.189 54.1141C684.117 54.1141 684.117 53.982 684.189 53.982C684.26 53.982 684.25 54.165 684.189 54.165V54.1141ZM684.443 53.9109L684.515 53.982C684.056 53.8499 683.659 54.2463 683.201 54.2463C683.201 54.3072 683.262 54.3784 683.201 54.3784L683.069 54.3072L682.865 54.3784C682.804 54.4393 682.743 54.4393 682.804 54.5003L682.671 54.4393C682.401 54.5529 682.139 54.6853 681.887 54.8357C681.887 54.7036 681.887 54.7036 681.826 54.7036C681.765 54.7036 681.429 54.8357 681.225 54.8357H681.164C683.656 53.8213 686.256 53.0951 688.914 52.6711V52.8439C688.914 52.8439 688.781 52.8439 688.781 52.9048L687.132 53.3012C686.358 53.0471 685.339 54.0938 684.443 53.9617V53.9109ZM684.637 57.3254C684.64 57.4141 684.619 57.5019 684.576 57.5795V57.4575C684.571 57.4213 684.574 57.3845 684.585 57.3495C684.595 57.3145 684.613 57.2821 684.637 57.2543V57.3254ZM684.708 57.1933C684.637 57.1933 684.637 57.0612 684.708 57.0612V57.1933ZM684.769 57.5185C684.708 57.5185 684.708 57.3864 684.769 57.3864C684.83 57.3864 684.841 57.5693 684.769 57.5693V57.5185Z" fill="#5E1B3C"/>
<path d="M683.729 58.2295C683.703 58.2536 683.683 58.2838 683.671 58.3174C683.659 58.351 683.655 58.3871 683.659 58.4226V58.4836C683.729 58.4836 683.729 58.3616 683.729 58.3616V58.2295Z" fill="#5E1B3C"/>
<path d="M681.888 67.7925C681.918 67.7283 681.939 67.6597 681.948 67.5892C682.14 66.9998 682.534 65.4958 682.534 65.4348V65.3027L681.888 67.5892V67.7925Z" fill="#5E1B3C"/>
<path d="M681.429 66.1563V66.3493L681.755 65.1705V64.9673L681.429 66.1563Z" fill="#5E1B3C"/>
<path d="M682.61 63.9206C682.67 63.8596 682.67 63.7275 682.61 63.7275V63.9206Z" fill="#5E1B3C"/>
<path d="M683.792 58.0977V58.1586L683.852 58.2907V58.2298C683.852 58.1586 683.852 58.1586 683.792 58.0977Z" fill="#5E1B3C"/>
<path d="M682.935 61.5017C682.995 61.5017 682.995 61.3696 682.935 61.3696C682.876 61.3696 682.866 61.5017 682.935 61.5017Z" fill="#5E1B3C"/>
<path d="M682.742 64.51V64.3779C682.672 64.3779 682.672 64.51 682.742 64.51Z" fill="#5E1B3C"/>
<path d="M682.936 62.6099C682.985 62.5352 683.006 62.4451 682.996 62.3558V62.2847C682.973 62.3125 682.956 62.3449 682.945 62.3799C682.935 62.4149 682.932 62.4517 682.936 62.4879V62.6099Z" fill="#5E1B3C"/>
<path d="M682.865 64.124C683.022 63.771 683.112 63.3919 683.13 63.0061V62.874C682.98 63.2292 682.89 63.6071 682.865 63.9919V64.124Z" fill="#5E1B3C"/>
<path d="M682.671 63.7273C682.74 63.7273 682.74 63.5952 682.671 63.5952C682.601 63.5952 682.611 63.7273 682.671 63.7273Z" fill="#5E1B3C"/>
<path d="M682.671 64.7742C682.741 64.7742 682.741 64.6421 682.671 64.6421V64.7742Z" fill="#5E1B3C"/>
<path d="M682.61 65.0382C682.67 64.9671 682.67 64.835 682.61 64.835V65.0382Z" fill="#5E1B3C"/>
<path d="M682.802 63.1382C682.673 63.1382 682.742 63.2703 682.742 63.3313V63.4634C682.784 63.3821 682.805 63.291 682.802 63.1992V63.1382Z" fill="#5E1B3C"/>
<path d="M682.803 64.3169V64.1848C682.743 64.1238 682.743 64.3779 682.803 64.3169Z" fill="#5E1B3C"/>
<path d="M683.201 61.6952C683.13 61.6342 683.13 61.8273 683.201 61.7562V61.6952Z" fill="#5E1B3C"/>
<path d="M683.067 62.2234C683.127 62.2234 683.127 62.0913 683.067 62.0913C683.008 62.0913 682.998 62.2844 683.067 62.2234Z" fill="#5E1B3C"/>
<path d="M683.129 61.8882C683.069 61.8882 683.069 62.0203 683.129 62.0203V61.8882Z" fill="#5E1B3C"/>
<path d="M681.359 66.4724V66.4102C681.266 66.4102 681.266 66.5451 681.359 66.4724Z" fill="#5E1B3C"/>
<path d="M693.17 70.6785V70.5464C693.11 70.5464 693.11 70.6785 693.17 70.6785Z" fill="#5E1B3C"/>
<path d="M690.564 50.3642V50.3032C690.558 50.3125 690.556 50.323 690.556 50.3337C690.556 50.3444 690.558 50.3549 690.564 50.3642Z" fill="#5E1B3C"/>
<path d="M579.871 39.3586C581.673 38.5599 583.265 37.3565 584.525 35.8425C585.481 34.7619 586.196 33.4905 586.622 32.1129L576.724 30.7613C576.444 31.4236 575.968 31.9853 575.361 32.3718C574.754 32.7584 574.043 32.9516 573.323 32.9259C572.8 32.9422 572.28 32.8524 571.793 32.662C571.307 32.4716 570.864 32.1845 570.492 31.8182C569.66 30.8937 569.196 29.6971 569.188 28.4545H587.457C587.551 27.7027 587.598 26.9459 587.6 26.1883C587.661 23.6302 587.05 21.1007 585.828 18.8512C584.691 16.8113 582.981 15.1476 580.909 14.0647C578.647 12.9484 576.157 12.3677 573.633 12.3677C571.11 12.3677 568.62 12.9484 566.357 14.0647C564.271 15.1822 562.556 16.8804 561.418 18.9528C560.187 21.2578 559.573 23.8412 559.636 26.4525C559.572 29.0697 560.193 31.6583 561.439 33.9624C562.584 36.0442 564.311 37.7493 566.408 38.8708C568.644 40.0488 571.142 40.6431 573.669 40.5984C575.802 40.6373 577.918 40.2143 579.871 39.3586ZM570.706 20.9649C571.523 20.3013 572.555 19.958 573.608 19.9995C574.684 19.9654 575.735 20.327 576.561 21.0157C576.956 21.3581 577.268 21.7859 577.473 22.2667C577.678 22.7474 577.77 23.2684 577.742 23.79H569.249C569.389 22.7051 569.908 21.7044 570.716 20.9649H570.706Z" fill="#5E1B3C"/>
<path d="M640.238 38.9113C642.473 40.0906 644.971 40.685 647.499 40.6389C649.634 40.665 651.75 40.2281 653.7 39.3584C655.502 38.5597 657.095 37.3564 658.354 35.8423C659.306 34.7585 660.02 33.4882 660.452 32.1127L650.543 30.7612C650.263 31.4319 649.782 31.9999 649.166 32.3874C648.55 32.7748 647.829 32.9629 647.101 32.9257C646.579 32.942 646.059 32.8522 645.572 32.6618C645.085 32.4714 644.642 32.1844 644.27 31.818C643.457 30.8861 643.011 29.6903 643.018 28.4543H661.277C661.378 27.7032 661.429 26.9461 661.429 26.1882C661.49 23.63 660.879 21.1006 659.657 18.851C658.52 16.8082 656.806 15.1439 654.729 14.0646C652.468 12.9484 649.98 12.3677 647.458 12.3677C644.936 12.3677 642.447 12.9484 640.187 14.0646C638.1 15.1852 636.382 16.8823 635.238 18.9526C634.01 21.2586 633.399 23.8419 633.466 26.4524C633.401 29.0696 634.023 31.6582 635.268 33.9623C636.407 36.059 638.134 37.7789 640.238 38.9113ZM644.545 20.9647C645.363 20.3011 646.395 19.9578 647.448 19.9993C648.524 19.9652 649.575 20.3269 650.401 21.0156C650.794 21.3594 651.105 21.7874 651.309 22.2678C651.514 22.7482 651.607 23.2685 651.582 23.7899H643.069C643.211 22.7036 643.734 21.7027 644.545 20.9647Z" fill="#5E1B3C"/>
<path d="M714.016 14.0646C711.755 12.9484 709.267 12.3677 706.745 12.3677C704.223 12.3677 701.735 12.9484 699.474 14.0646C697.375 15.193 695.648 16.9051 694.505 18.9933C693.277 21.2992 692.667 23.8825 692.733 26.493C692.669 29.1102 693.29 31.6988 694.535 34.0029C695.681 36.0846 697.407 37.7898 699.505 38.9113C701.74 40.0906 704.238 40.685 706.766 40.6389C708.901 40.665 711.017 40.2281 712.967 39.3584C714.769 38.5597 716.362 37.3564 717.621 35.8423C718.577 34.7617 719.293 33.4904 719.719 32.1127L709.821 30.7612C709.537 31.4319 709.054 31.9993 708.436 32.3866C707.819 32.7738 707.097 32.962 706.368 32.9257C705.846 32.942 705.326 32.8522 704.839 32.6618C704.352 32.4714 703.91 32.1844 703.537 31.818C702.731 30.8832 702.293 29.6876 702.305 28.4543H720.564C720.666 27.7032 720.717 26.9461 720.717 26.1882C720.778 23.63 720.167 21.1006 718.945 18.851C717.807 16.8082 716.093 15.1439 714.016 14.0646ZM702.356 23.7899C702.498 22.7036 703.021 21.7027 703.833 20.9647C704.65 20.3011 705.682 19.9578 706.735 19.9993C707.811 19.9652 708.862 20.3269 709.688 21.0156C710.082 21.3594 710.392 21.7874 710.597 22.2678C710.801 22.7482 710.895 23.2685 710.869 23.7899H702.356Z" fill="#5E1B3C"/>
<path d="M782 26.1881C782.063 23.6286 781.448 21.0979 780.218 18.851C779.084 16.8089 777.374 15.1445 775.3 14.0646C773.039 12.9484 770.551 12.3677 768.029 12.3677C765.506 12.3677 763.018 12.9484 760.758 14.0646C758.671 15.1852 756.953 16.8823 755.809 18.9526C754.581 21.2586 753.97 23.8419 754.037 26.4524C753.974 29.0681 754.592 31.6554 755.829 33.9623C756.981 36.0426 758.71 37.7469 760.809 38.8706C763.043 40.0499 765.542 40.6443 768.069 40.5982C770.205 40.6244 772.321 40.1875 774.271 39.3178C776.071 38.5162 777.663 37.3133 778.925 35.8016C779.886 34.7334 780.615 33.4772 781.063 32.1127L771.155 30.7612C770.875 31.4319 770.393 31.9999 769.777 32.3874C769.161 32.7748 768.44 32.9629 767.713 32.9257C767.19 32.9426 766.67 32.8531 766.183 32.6627C765.696 32.4722 765.254 32.1848 764.882 31.818C764.054 30.8921 763.594 29.6956 763.589 28.4543H781.847C781.949 27.7032 782 26.9461 782 26.1881ZM763.67 23.7899C763.812 22.7036 764.335 21.7027 765.147 20.9647C765.964 20.3011 766.996 19.9578 768.049 19.9993C769.125 19.9652 770.176 20.3269 771.002 21.0156C771.396 21.3594 771.706 21.7874 771.911 22.2678C772.115 22.7482 772.209 23.2685 772.183 23.7899H763.67Z" fill="#5E1B3C"/>
<path d="M37.1793 41.8179C38.623 40.6279 40.4031 39.9173 42.271 39.7854C40.731 39.3286 39.3304 38.4935 38.1976 37.3567C36.6095 35.8123 35.3035 34.0034 34.3381 32.0113C33.0417 29.3735 32.0574 26.5941 31.4053 23.7291C30.5912 20.118 30.2016 16.4245 30.2444 12.7234C30.2183 9.33539 30.5183 5.95275 31.1405 2.62207H9.66386C8.46952 5.85609 7.8626 9.27671 7.87159 12.7234C7.76023 18.5849 9.39785 24.3472 12.5763 29.2777C15.3884 33.7848 19.3911 37.4311 24.1446 39.8159C20.7548 40.3547 17.5031 41.5491 14.5722 43.3321C11.6185 45.1248 9.02229 47.447 6.91435 50.1814C4.70992 53.0322 2.98978 56.225 1.82268 59.6323C0.593502 63.2096 -0.0227351 66.9681 -0.000142581 70.7498C-0.0299081 74.9212 0.737352 79.0599 2.26056 82.9445C2.45405 83.4222 2.67808 83.8795 2.88175 84.3469H27.9328V84.2758C26.9161 79.84 26.4274 75.2999 26.4766 70.7498C26.4031 66.2103 26.9408 61.6815 28.0754 57.2848C28.9501 53.915 30.2829 50.6805 32.0367 47.6713C33.3458 45.3998 35.0938 43.4101 37.1793 41.8179Z" fill="#5E1B3C"/>
<path d="M129.267 69.5812C129.308 65.2887 128.331 61.0474 126.416 57.2036C124.48 53.3546 122.035 49.7828 119.145 46.584C116.066 43.1867 112.729 40.0305 109.166 37.1433C105.479 34.1285 101.85 31.1171 98.2795 28.109C94.7086 25.101 91.3141 22.0083 88.0962 18.8309C85.0644 15.8407 82.4971 12.4155 80.479 8.66864C79.3903 6.7542 78.5616 4.70378 78.0147 2.57129H57.8415V2.64242C55.45 7.17222 54.2648 12.2391 54.3995 17.3574C54.3588 21.6499 55.3358 25.8911 57.2508 29.735C59.1899 33.587 61.6426 37.1593 64.5421 40.3545C67.6204 43.7493 70.9532 46.9053 74.5116 49.7953C78.198 52.8033 81.8572 55.852 85.4892 58.9413C89.1213 62.0306 92.5158 65.1267 95.6726 68.2296C98.6585 71.2091 101.224 74.58 103.3 78.2496C104.323 80.1776 105.099 82.2261 105.612 84.3469H125.846C128.24 79.8008 129.419 74.7149 129.267 69.5812Z" fill="#5E1B3C"/>
<path d="M181.63 59.6323C180.463 56.225 178.743 53.0322 176.539 50.1814C174.433 47.4446 171.837 45.122 168.881 43.3321C165.95 41.5491 162.698 40.3547 159.308 39.8159C164.064 37.4346 168.068 33.7875 170.877 29.2777C174.055 24.3472 175.693 18.5849 175.581 12.7234C175.59 9.27671 174.984 5.85609 173.789 2.62207H152.323C152.945 5.95275 153.245 9.33539 153.219 12.7234C153.261 16.4351 152.868 20.1389 152.048 23.7596C151.397 26.625 150.413 29.4047 149.115 32.0418C148.157 34.0382 146.85 35.8482 145.255 37.3871C144.123 38.524 142.722 39.3591 141.182 39.8159C143.05 39.9478 144.83 40.6583 146.274 41.8484C148.343 43.4431 150.074 45.4329 151.365 47.7018C153.123 50.7092 154.456 53.9442 155.327 57.3153C156.462 61.7084 157 66.2339 156.926 70.7701C157.011 75.3342 156.549 79.8921 155.551 84.3469H180.592C180.795 83.8795 181.019 83.4222 181.213 82.9445C182.736 79.0599 183.503 74.9212 183.474 70.7498C183.49 66.967 182.867 63.2085 181.63 59.6323Z" fill="#5E1B3C"/>
<path d="M80.8355 77.1112C80.842 75.0497 80.365 73.0154 79.4426 71.1708C78.5201 69.3263 77.178 67.7227 75.5234 66.4885C73.8688 65.2542 71.9478 64.4235 69.9139 64.0627C67.88 63.702 65.7897 63.8212 63.8103 64.4109C61.8309 65.0006 60.0172 66.0444 58.5144 67.4588C57.0115 68.8732 55.8612 70.6189 55.1555 72.5564C54.4497 74.4938 54.2081 76.5692 54.4499 78.6165C54.6918 80.6638 55.4104 82.6262 56.5482 84.3467H78.6563C80.0769 82.1998 80.8346 79.6839 80.8355 77.1112Z" fill="#5E1B3C"/>
<path d="M116.029 23.0888C118.418 23.0882 120.761 22.4427 122.812 21.2207C124.863 19.9988 126.544 18.246 127.678 16.1481C128.811 14.0502 129.355 11.6853 129.251 9.30402C129.147 6.92277 128.4 4.61389 127.088 2.62207H104.98C103.669 4.61317 102.921 6.92111 102.817 9.30148C102.713 11.6818 103.256 14.046 104.388 16.1436C105.521 18.2412 107.201 19.9942 109.25 21.2168C111.299 22.4395 113.642 23.0863 116.029 23.0888Z" fill="#5E1B3C"/>
<path d="M263.311 42.6813C266.82 41.4556 269.834 39.1225 271.896 36.0352C273.924 32.7914 274.95 29.0241 274.849 25.2022C274.849 17.865 272.103 12.269 266.611 8.41416C261.118 4.55928 253.104 2.63184 242.568 2.63184H213.148V84.3465H246.437C256.41 84.2652 263.939 82.2158 269.024 78.1983C274.109 74.1809 276.648 68.1648 276.641 60.1502C276.753 56.1497 275.548 52.2229 273.209 48.9717C270.745 45.7888 267.244 43.5641 263.311 42.6813ZM232.893 17.7939H242.568C246.987 17.7939 250.195 18.5459 252.181 20.0703C254.167 21.5946 255.165 24.0742 255.165 27.5294C255.165 30.5272 254.238 32.8036 252.405 34.3381C250.572 35.8726 247.496 36.6652 243.179 36.7059H232.893V17.7939ZM254.034 66.7556C252.126 68.3816 249.391 69.1946 245.826 69.1946H232.893V49.6119H246.722C253.511 49.6526 256.906 53.0773 256.906 59.886C256.978 61.1731 256.757 62.4598 256.26 63.6496C255.762 64.8394 255.002 65.9013 254.034 66.7556Z" fill="#5E1B3C"/>
<path d="M311.611 18.7187C313.647 17.1605 316.431 16.3814 319.961 16.3814C322.976 16.2224 325.941 17.206 328.26 19.1354C329.301 20.1282 330.114 21.3349 330.641 22.672C331.169 24.009 331.399 25.4445 331.315 26.879H351C351.077 22.1659 349.725 17.5395 347.12 13.6071C344.426 9.64305 340.648 6.5353 336.234 4.65419C331.24 2.49444 325.841 1.42386 320.399 1.51405C314.833 1.43391 309.303 2.41343 304.105 4.40013C299.694 6.03239 295.819 8.84511 292.904 12.5299C290.271 15.9657 288.876 20.1866 288.942 24.5112C288.942 33.5963 294.248 40.7403 304.859 45.9434C308.941 47.8898 313.149 49.5602 317.456 50.9433C322.588 52.6573 326.176 54.3205 328.22 55.9329C329.226 56.7349 330.028 57.7638 330.559 58.935C331.09 60.1062 331.335 61.3864 331.275 62.6705C331.328 63.8153 331.096 64.9556 330.601 65.9894C330.105 67.0232 329.36 67.9184 328.433 68.5951C326.167 70.0804 323.483 70.8033 320.776 70.658C315.677 70.658 311.994 69.6215 309.727 67.5484C307.459 65.4753 306.325 62.2471 306.325 57.8637H286.488C286.401 62.9044 287.819 67.8569 290.561 72.0909C293.566 76.4626 297.79 79.8582 302.71 81.8568C308.409 84.3212 314.565 85.5541 320.776 85.4746C330.185 85.4746 337.588 83.4421 342.985 79.3772C348.383 75.3123 351.098 69.6994 351.132 62.5384C351.132 53.5956 346.719 46.5803 337.894 41.4924C333.427 39.0322 328.713 37.0465 323.831 35.5678C318.169 33.7487 314.207 32.0008 311.957 30.2936C309.706 28.5863 308.556 26.7266 308.556 24.6332C308.543 23.4735 308.815 22.3284 309.347 21.2975C309.88 20.2667 310.657 19.3814 311.611 18.7187Z" fill="#5E1B3C"/>
<path d="M416.744 78.2491C421.815 74.2249 424.354 68.2088 424.361 60.201C424.473 56.2005 423.267 52.2737 420.929 49.0225C418.485 45.8306 415.003 43.5883 411.082 42.6813C414.596 41.4721 417.618 39.1487 419.687 36.0656C421.713 32.8115 422.73 29.0318 422.609 25.2022C422.609 17.865 419.86 12.269 414.361 8.41416C408.862 4.55928 400.851 2.63184 390.328 2.63184H360.918V84.3465H394.157C404.137 84.272 411.666 82.2395 416.744 78.2491ZM380.664 17.7939H390.338C394.758 17.7939 397.965 18.5459 399.951 20.0703C401.937 21.5946 402.935 24.0742 402.935 27.5294C402.935 30.5272 402.008 32.8036 400.175 34.3381C398.342 35.8726 395.267 36.6652 390.949 36.7059H380.664V17.7939ZM380.664 69.1946V49.6119H394.493C401.282 49.6526 404.676 53.0773 404.676 59.886C404.749 61.1731 404.528 62.4598 404.03 63.6496C403.533 64.8394 402.772 65.9013 401.805 66.7556C399.89 68.3816 397.161 69.1946 393.597 69.1946H380.664Z" fill="#5E1B3C"/>
<path d="M10.5092 108.736C11.355 108.41 12.085 107.84 12.607 107.1C13.0856 106.396 13.3378 105.563 13.33 104.712C13.38 103.972 13.2507 103.231 12.9529 102.552C12.6551 101.873 12.1976 101.275 11.6192 100.81C10.1481 99.8191 8.39059 99.3405 6.61918 99.4479H0V118.756H7.04688C8.83461 118.875 10.6064 118.356 12.0469 117.293C12.6393 116.779 13.1047 116.136 13.4067 115.413C13.7088 114.69 13.8394 113.908 13.7883 113.126C13.8178 112.12 13.5174 111.132 12.9329 110.311C12.3334 109.521 11.4762 108.964 10.5092 108.736ZM3.38087 102.202H6.61918C7.51419 102.126 8.40923 102.348 9.16502 102.832C9.44948 103.084 9.67117 103.4 9.81256 103.752C9.95395 104.105 10.0112 104.486 9.97969 104.864C10.005 105.249 9.93785 105.634 9.78374 105.988C9.62963 106.341 9.39305 106.653 9.09373 106.897C8.3876 107.412 7.52272 107.664 6.64973 107.608H3.36051L3.38087 102.202ZM9.58253 115.321C8.88225 115.858 8.00869 116.118 7.12835 116.053H3.36051V110.027H7.36256C9.39923 110.067 10.4176 111.084 10.4176 113.076C10.4479 113.482 10.3869 113.89 10.2389 114.27C10.0909 114.649 9.85968 114.991 9.56217 115.271L9.58253 115.321Z" fill="#5E1B3C"/>
<path d="M27.9431 112.242C27.9431 114.952 26.6498 116.307 24.0632 116.307C23.537 116.346 23.0083 116.276 22.5105 116.101C22.0127 115.926 21.5567 115.65 21.1712 115.291C20.4551 114.477 20.0892 113.415 20.1528 112.333V99.4478H16.8432V112.323C16.7938 113.234 16.943 114.144 17.2805 114.992C17.6181 115.839 18.136 116.604 18.7984 117.232C20.2637 118.469 22.1467 119.101 24.0632 119C25.9811 119.095 27.8624 118.451 29.3178 117.201C29.9789 116.58 30.497 115.823 30.8364 114.983C31.1757 114.142 31.3282 113.238 31.2832 112.333V99.4478H27.9431V112.242Z" fill="#5E1B3C"/>
<path d="M47.7191 108.523C48.3637 107.567 48.6881 106.432 48.6457 105.281C48.6993 104.468 48.5646 103.654 48.252 102.901C47.9395 102.149 47.4574 101.478 46.8433 100.942C45.3494 99.8585 43.5232 99.3301 41.6803 99.4478H34.8677V118.756H38.2282V111.338H41.9757L45.8453 118.756H49.4502V118.583L45.1019 110.555C46.1454 110.131 47.0511 109.428 47.7191 108.523ZM41.6803 108.614H38.2282V102.151H41.7516C42.7111 102.09 43.6568 102.403 44.3891 103.025C44.6957 103.339 44.933 103.714 45.0856 104.125C45.2381 104.537 45.3027 104.975 45.2751 105.413C45.2935 105.85 45.2176 106.286 45.0525 106.691C44.8873 107.096 44.6367 107.461 44.3178 107.761C43.575 108.361 42.6351 108.665 41.6803 108.614Z" fill="#5E1B3C"/>
<path d="M59.3284 111.378H63.3101V115.159C62.8099 115.59 62.2268 115.915 61.5966 116.115C60.9663 116.314 60.3019 116.383 59.6441 116.317C58.9368 116.349 58.2324 116.208 57.5919 115.907C56.9513 115.606 56.3939 115.154 55.9679 114.59C55.0125 113.164 54.5511 111.465 54.6542 109.752V108.269C54.5674 106.598 54.9899 104.94 55.866 103.513C56.2575 102.979 56.7766 102.552 57.376 102.269C57.9755 101.987 58.6361 101.859 59.2978 101.897C59.7962 101.847 60.2995 101.898 60.7775 102.047C61.2555 102.197 61.6982 102.441 62.0789 102.766C62.4596 103.091 62.7704 103.489 62.9925 103.937C63.2146 104.385 63.3434 104.873 63.3712 105.372H66.6604C66.5209 103.608 65.7036 101.966 64.3793 100.789C62.9274 99.6679 61.1213 99.1019 59.2876 99.1938C58.1827 99.1225 57.0761 99.3042 56.0524 99.7252C55.0287 100.146 54.115 100.795 53.3813 101.623C51.877 103.571 51.1317 105.997 51.2835 108.452V109.966C51.2596 111.614 51.6076 113.246 52.3019 114.742C52.9324 116.055 53.9389 117.151 55.1939 117.892C56.5006 118.639 57.9858 119.018 59.4913 118.99C60.9309 119.013 62.3628 118.776 63.7174 118.289C64.8547 117.892 65.8594 117.189 66.6197 116.256V108.838H59.3284V111.378Z" fill="#5E1B3C"/>
<path d="M81.1411 112.242C81.1411 114.952 79.8478 116.307 77.2613 116.307C76.735 116.346 76.2063 116.276 75.7085 116.101C75.2108 115.926 74.7547 115.65 74.3692 115.291C74.0122 114.889 73.7385 114.421 73.5637 113.914C73.3889 113.406 73.3166 112.869 73.3509 112.333V99.4478H70.0413V112.323C69.9925 113.233 70.1411 114.142 70.4768 114.989C70.8124 115.837 71.3273 116.601 71.9863 117.232C73.4557 118.468 75.3417 119.101 77.2613 119C79.1692 119.09 81.0392 118.447 82.4853 117.201C83.1588 116.586 83.6898 115.832 84.0416 114.991C84.3933 114.151 84.5572 113.244 84.522 112.333V99.4478H81.1411V112.242Z" fill="#5E1B3C"/>
<path d="M100.061 113.177L91.4259 99.4478H88.0654V118.726H91.4259V105.047L100.041 118.726H103.402V99.4478H100.061V113.177Z" fill="#5E1B3C"/>
<path d="M117.618 100.607C116.222 99.8166 114.639 99.4164 113.035 99.448H107.322V118.756H112.882C114.502 118.789 116.102 118.4 117.526 117.628C118.862 116.892 119.947 115.773 120.642 114.417C121.4 112.926 121.778 111.272 121.742 109.6V108.584C121.774 106.921 121.4 105.274 120.652 103.787C119.968 102.458 118.914 101.354 117.618 100.607ZM118.412 109.692C118.508 111.391 117.996 113.07 116.966 114.427C116.456 114.991 115.824 115.433 115.119 115.718C114.413 116.003 113.652 116.125 112.893 116.073H110.703V102.151H113.035C113.779 102.103 114.524 102.227 115.211 102.514C115.898 102.802 116.51 103.245 116.996 103.808C118.002 105.193 118.489 106.887 118.371 108.594L118.412 109.692Z" fill="#5E1B3C"/>
<path d="M130.866 108.584L126.416 99.4478H122.689L129.176 111.632V118.726H132.546V111.632L139.023 99.4478H135.306L130.866 108.584Z" fill="#5E1B3C"/>
<path d="M158.708 109.183C157.575 108.534 156.359 108.042 155.093 107.72C153.948 107.43 152.855 106.963 151.854 106.338C151.549 106.153 151.295 105.894 151.117 105.584C150.939 105.275 150.843 104.926 150.836 104.57C150.819 104.194 150.892 103.82 151.05 103.479C151.207 103.138 151.445 102.839 151.742 102.608C152.497 102.099 153.399 101.852 154.309 101.907C155.287 101.843 156.254 102.147 157.017 102.761C157.337 103.064 157.587 103.432 157.751 103.841C157.914 104.25 157.987 104.689 157.964 105.129H161.315C161.327 104.045 161.011 102.982 160.408 102.08C159.8 101.15 158.938 100.414 157.924 99.956C156.794 99.4518 155.566 99.202 154.329 99.2244C152.555 99.1435 150.807 99.6746 149.38 100.728C148.781 101.173 148.296 101.753 147.965 102.421C147.634 103.088 147.466 103.825 147.476 104.57C147.486 105.461 147.738 106.332 148.204 107.093C148.67 107.853 149.333 108.473 150.123 108.889C151.29 109.568 152.539 110.094 153.84 110.454C154.987 110.734 156.078 111.205 157.068 111.846C157.366 112.075 157.604 112.374 157.76 112.716C157.916 113.057 157.986 113.432 157.964 113.807C157.975 114.167 157.9 114.523 157.747 114.848C157.593 115.173 157.364 115.457 157.078 115.677C156.31 116.208 155.383 116.459 154.451 116.388C153.335 116.464 152.227 116.144 151.325 115.484C150.96 115.172 150.672 114.781 150.483 114.341C150.294 113.9 150.209 113.422 150.235 112.943H146.875C146.865 114.085 147.222 115.2 147.893 116.124C148.594 117.071 149.541 117.809 150.632 118.258C151.849 118.788 153.164 119.055 154.492 119.041C156.277 119.137 158.044 118.637 159.512 117.618C160.107 117.173 160.586 116.592 160.909 115.923C161.232 115.255 161.388 114.518 161.366 113.777C161.387 112.871 161.166 111.977 160.724 111.185C160.229 110.361 159.536 109.673 158.708 109.183Z" fill="#5E1B3C"/>
<path d="M168.27 103.482C168.653 102.958 169.161 102.538 169.748 102.26C170.334 101.981 170.981 101.853 171.63 101.887C172.666 101.816 173.69 102.144 174.492 102.801C175.247 103.641 175.676 104.722 175.704 105.85H179.054C178.959 103.989 178.145 102.237 176.783 100.962C175.345 99.7584 173.505 99.1413 171.63 99.2343C170.157 99.1999 168.704 99.5879 167.445 100.352C166.217 101.121 165.249 102.239 164.665 103.563C163.972 105.07 163.625 106.712 163.646 108.37V110.169C163.65 111.785 163.997 113.381 164.665 114.854C165.262 116.108 166.205 117.165 167.384 117.902C168.608 118.649 170.022 119.03 171.457 119C173.377 119.094 175.264 118.475 176.752 117.262C178.121 116.025 178.942 114.296 179.034 112.455H175.683C175.625 113.557 175.182 114.603 174.431 115.413C173.581 116.06 172.523 116.374 171.457 116.297C170.813 116.331 170.171 116.197 169.594 115.908C169.017 115.62 168.526 115.186 168.168 114.65C167.328 113.204 166.938 111.542 167.048 109.874V108.167C166.955 106.516 167.382 104.878 168.27 103.482Z" fill="#5E1B3C"/>
<path d="M194.054 107.476H185.408V99.4478H182.048V118.726H185.408V110.179H194.054V118.726H197.394V99.4478H194.054V107.476Z" fill="#5E1B3C"/>
<path d="M212.965 100.311C211.693 99.5693 210.247 99.1782 208.774 99.1782C207.301 99.1782 205.855 99.5693 204.584 100.311C203.338 101.118 202.354 102.269 201.753 103.624C201.055 105.191 200.707 106.89 200.734 108.604V109.752C200.709 111.436 201.057 113.106 201.753 114.64C202.358 115.983 203.346 117.117 204.594 117.902C205.864 118.654 207.313 119.05 208.789 119.05C210.266 119.05 211.715 118.654 212.985 117.902C214.224 117.109 215.199 115.967 215.785 114.62C216.484 113.054 216.832 111.354 216.804 109.64V108.624C216.829 106.92 216.481 105.231 215.785 103.675C215.207 102.295 214.224 101.123 212.965 100.311ZM213.433 109.59C213.548 111.326 213.129 113.056 212.231 114.549C211.83 115.079 211.31 115.509 210.714 115.806C210.118 116.102 209.461 116.256 208.794 116.256C208.128 116.256 207.471 116.102 206.875 115.806C206.279 115.509 205.759 115.079 205.358 114.549C204.445 113.076 204.011 111.358 204.115 109.63V108.523C204.03 106.827 204.467 105.146 205.368 103.706C205.766 103.174 206.283 102.742 206.878 102.444C207.473 102.147 208.129 101.992 208.794 101.992C209.46 101.992 210.116 102.147 210.711 102.444C211.306 102.742 211.823 103.174 212.221 103.706C213.117 105.18 213.54 106.893 213.433 108.614V109.59Z" fill="#5E1B3C"/>
<path d="M231.732 100.311C230.461 99.5693 229.015 99.1782 227.542 99.1782C226.069 99.1782 224.623 99.5693 223.351 100.311C222.108 101.119 221.128 102.27 220.531 103.624C219.828 105.189 219.48 106.889 219.512 108.604V109.752C219.492 111.436 219.84 113.104 220.531 114.64C221.139 115.98 222.127 117.114 223.372 117.902C224.642 118.654 226.091 119.05 227.567 119.05C229.044 119.05 230.493 118.654 231.763 117.902C233.007 117.113 233.986 115.97 234.573 114.62C235.267 113.052 235.615 111.354 235.592 109.64V108.624C235.617 106.92 235.27 105.231 234.573 103.675C233.993 102.29 233.002 101.116 231.732 100.311ZM232.211 109.59C232.321 111.326 231.902 113.054 231.009 114.549C230.607 115.079 230.086 115.51 229.489 115.806C228.892 116.102 228.234 116.256 227.567 116.256C226.9 116.256 226.243 116.102 225.645 115.806C225.048 115.51 224.528 115.079 224.125 114.549C223.213 113.076 222.779 111.358 222.883 109.63V108.523C222.787 106.81 223.225 105.11 224.136 103.655C224.534 103.123 225.051 102.691 225.646 102.393C226.241 102.096 226.897 101.941 227.562 101.941C228.228 101.941 228.884 102.096 229.479 102.393C230.074 102.691 230.591 103.123 230.989 103.655C231.893 105.126 232.32 106.84 232.211 108.563V109.59Z" fill="#5E1B3C"/>
<path d="M242.272 99.4478H238.912V118.726H251.04V116.053H242.272V99.4478Z" fill="#5E1B3C"/>
<path d="M271.987 100.312C270.732 99.5532 269.289 99.1623 267.822 99.1836C266.347 99.1548 264.894 99.5499 263.637 100.322C262.388 101.125 261.404 102.277 260.806 103.635C260.108 105.201 259.761 106.9 259.788 108.614V109.752C259.762 111.437 260.11 113.106 260.806 114.64C261.408 115.985 262.397 117.12 263.647 117.902C264.917 118.654 266.366 119.05 267.843 119.05C269.319 119.05 270.768 118.654 272.038 117.902C273.277 117.11 274.252 115.967 274.839 114.62C275.537 113.054 275.885 111.355 275.857 109.641V108.624C275.887 106.92 275.539 105.23 274.839 103.675C274.253 102.291 273.258 101.117 271.987 100.312ZM272.456 109.59C272.565 111.326 272.146 113.055 271.254 114.549C270.852 115.079 270.333 115.51 269.737 115.806C269.14 116.102 268.483 116.256 267.817 116.256C267.151 116.256 266.494 116.102 265.898 115.806C265.301 115.51 264.782 115.079 264.38 114.549C263.463 113.078 263.029 111.359 263.138 109.63V108.523C263.053 106.827 263.49 105.146 264.39 103.706C264.789 103.174 265.306 102.742 265.901 102.444C266.496 102.147 267.152 101.992 267.817 101.992C268.483 101.992 269.139 102.147 269.734 102.444C270.329 102.742 270.846 103.174 271.244 103.706C272.14 105.18 272.563 106.893 272.456 108.614V109.59Z" fill="#5E1B3C"/>
<path d="M279.156 118.726H282.517V110.555H290.297V107.882H282.517V102.151H291.437V99.4478H279.156V118.726Z" fill="#5E1B3C"/>
<path d="M311.376 108.736C312.221 108.407 312.95 107.838 313.474 107.1C313.95 106.395 314.198 105.562 314.187 104.712C314.237 103.972 314.108 103.231 313.81 102.552C313.512 101.873 313.055 101.275 312.476 100.809C311.003 99.8362 309.249 99.3754 307.486 99.4986H300.857V118.807H307.914C309.699 118.925 311.467 118.407 312.904 117.343C313.498 116.831 313.965 116.188 314.269 115.465C314.573 114.742 314.705 113.959 314.655 113.177C314.685 112.171 314.385 111.182 313.8 110.362C313.206 109.555 312.349 108.98 311.376 108.736ZM304.248 102.202H307.537C308.429 102.128 309.32 102.35 310.073 102.832C310.359 103.084 310.582 103.399 310.725 103.751C310.868 104.104 310.927 104.485 310.898 104.864C310.923 105.249 310.856 105.634 310.702 105.988C310.548 106.341 310.311 106.653 310.012 106.897C309.304 107.409 308.44 107.66 307.568 107.608H304.268L304.248 102.202ZM310.45 115.321C309.752 115.882 308.869 116.162 307.975 116.104H304.248V110.077H308.26C310.297 110.077 311.315 111.094 311.315 113.126C311.333 113.527 311.262 113.927 311.107 114.298C310.952 114.669 310.717 115.001 310.419 115.27L310.45 115.321Z" fill="#5E1B3C"/>
<path d="M328.81 112.242C328.81 114.952 327.517 116.307 324.93 116.307C324.404 116.346 323.876 116.276 323.378 116.101C322.88 115.926 322.424 115.65 322.038 115.291C321.681 114.889 321.408 114.421 321.233 113.914C321.058 113.406 320.986 112.869 321.02 112.333V99.4478H317.721V112.323C317.671 113.234 317.82 114.144 318.158 114.992C318.496 115.839 319.013 116.603 319.676 117.232C321.14 118.47 323.024 119.103 324.941 119C326.856 119.097 328.734 118.452 330.185 117.201C330.85 116.582 331.371 115.826 331.712 114.985C332.053 114.144 332.206 113.239 332.161 112.333V99.4478H328.82L328.81 112.242Z" fill="#5E1B3C"/>
<path d="M346.549 109.183C345.419 108.516 344.203 108.007 342.934 107.669C341.79 107.379 340.697 106.913 339.696 106.287C339.391 106.102 339.137 105.843 338.959 105.534C338.781 105.225 338.684 104.876 338.678 104.519C338.66 104.144 338.734 103.769 338.891 103.428C339.049 103.087 339.287 102.788 339.584 102.558C340.339 102.048 341.241 101.802 342.15 101.856C343.128 101.792 344.095 102.097 344.859 102.71C345.179 103.013 345.429 103.382 345.592 103.79C345.756 104.199 345.829 104.638 345.806 105.078H349.156C349.169 103.994 348.853 102.931 348.25 102.029C347.641 101.1 346.779 100.363 345.765 99.9053C344.632 99.4031 343.401 99.1568 342.16 99.1838C340.387 99.1029 338.639 99.6341 337.211 100.688C336.612 101.132 336.128 101.712 335.797 102.38C335.466 103.048 335.298 103.784 335.307 104.529C335.318 105.42 335.57 106.292 336.036 107.052C336.502 107.812 337.165 108.433 337.955 108.848C339.121 109.527 340.37 110.053 341.672 110.413C342.818 110.694 343.909 111.164 344.9 111.805C345.198 112.035 345.435 112.333 345.591 112.675C345.748 113.017 345.818 113.392 345.796 113.767C345.807 114.126 345.732 114.483 345.578 114.808C345.424 115.133 345.195 115.417 344.91 115.637C344.142 116.167 343.214 116.418 342.283 116.348C341.166 116.424 340.059 116.103 339.156 115.443C338.791 115.132 338.503 114.741 338.314 114.3C338.125 113.86 338.041 113.381 338.067 112.903H334.706C334.697 114.044 335.053 115.159 335.725 116.084C336.426 117.031 337.373 117.769 338.464 118.218C339.681 118.746 340.996 119.013 342.323 119C344.109 119.097 345.876 118.596 347.344 117.577C347.939 117.133 348.418 116.551 348.741 115.883C349.063 115.214 349.22 114.478 349.197 113.736C349.219 112.831 348.997 111.936 348.556 111.145C348.058 110.337 347.369 109.663 346.549 109.183Z" fill="#5E1B3C"/>
<path d="M355.684 99.4478H352.344V118.736H355.684V99.4478Z" fill="#5E1B3C"/>
<path d="M371.815 113.177L363.179 99.4478H359.819V118.726H363.179V105.047L371.784 118.726H375.145V99.4478H371.815V113.177Z" fill="#5E1B3C"/>
<path d="M382.477 110.118H390.42V107.476H382.477V102.151H391.662V99.4478H379.116V118.726H391.754V116.053H382.477V110.118Z" fill="#5E1B3C"/>
<path d="M405.298 109.183C404.164 108.516 402.944 108.007 401.672 107.669C400.528 107.376 399.436 106.91 398.434 106.287C398.13 106.1 397.877 105.841 397.699 105.532C397.522 105.223 397.424 104.875 397.416 104.519C397.396 104.143 397.468 103.768 397.626 103.426C397.784 103.084 398.023 102.786 398.322 102.557C399.072 102.046 399.971 101.799 400.878 101.856C401.856 101.79 402.824 102.095 403.587 102.71C403.908 103.012 404.16 103.38 404.326 103.789C404.491 104.198 404.565 104.637 404.544 105.078H407.884C407.899 103.995 407.587 102.932 406.988 102.029C406.377 101.102 405.515 100.365 404.503 99.905C403.37 99.3996 402.139 99.1498 400.898 99.1733C399.128 99.0939 397.384 99.625 395.959 100.677C395.359 101.12 394.872 101.7 394.541 102.368C394.21 103.036 394.043 103.773 394.055 104.519C394.063 105.409 394.312 106.281 394.776 107.041C395.241 107.802 395.903 108.423 396.693 108.838C397.861 109.513 399.11 110.039 400.41 110.403C401.559 110.684 402.654 111.154 403.648 111.795C403.944 112.026 404.18 112.325 404.336 112.666C404.492 113.008 404.563 113.381 404.544 113.756C404.555 114.115 404.48 114.472 404.326 114.797C404.172 115.122 403.943 115.406 403.658 115.626C402.887 116.159 401.956 116.41 401.02 116.337C399.907 116.414 398.803 116.094 397.904 115.433C397.539 115.121 397.251 114.73 397.062 114.29C396.873 113.849 396.789 113.371 396.815 112.892H393.454C393.445 114.034 393.802 115.149 394.473 116.073C395.172 117.022 396.119 117.761 397.212 118.207C398.425 118.736 399.737 119.003 401.061 118.99C402.85 119.085 404.619 118.584 406.092 117.567C406.687 117.122 407.166 116.541 407.489 115.872C407.811 115.204 407.968 114.467 407.945 113.726C407.967 112.82 407.745 111.926 407.304 111.134C406.802 110.332 406.114 109.663 405.298 109.183Z" fill="#5E1B3C"/>
<path d="M421.713 109.183C420.582 108.518 419.366 108.009 418.098 107.669C416.951 107.376 415.855 106.91 414.849 106.287C414.545 106.101 414.293 105.841 414.115 105.532C413.937 105.223 413.839 104.875 413.831 104.519C413.814 104.143 413.887 103.769 414.045 103.428C414.202 103.087 414.44 102.788 414.737 102.557C415.487 102.046 416.387 101.799 417.293 101.856C418.275 101.792 419.244 102.097 420.012 102.71C420.332 103.013 420.582 103.382 420.746 103.79C420.909 104.199 420.982 104.638 420.959 105.078H424.299C424.315 103.995 424.002 102.932 423.403 102.029C422.792 101.102 421.931 100.366 420.919 99.9051C419.789 99.4009 418.561 99.1511 417.324 99.1735C415.566 99.1072 413.838 99.6414 412.426 100.688C411.827 101.132 411.342 101.712 411.011 102.38C410.68 103.048 410.512 103.784 410.521 104.529C410.53 105.421 410.781 106.293 411.247 107.054C411.713 107.814 412.378 108.434 413.169 108.848C414.335 109.527 415.585 110.053 416.886 110.413C418.033 110.694 419.124 111.164 420.114 111.805C420.412 112.035 420.65 112.333 420.806 112.675C420.962 113.017 421.032 113.391 421.01 113.766C421.021 114.126 420.946 114.483 420.792 114.808C420.638 115.133 420.409 115.417 420.124 115.636C419.353 116.169 418.422 116.421 417.487 116.348C416.374 116.424 415.269 116.103 414.371 115.443C414.006 115.132 413.718 114.741 413.529 114.3C413.34 113.859 413.255 113.381 413.281 112.903H409.921C409.911 114.044 410.268 115.159 410.939 116.083C411.64 117.031 412.587 117.769 413.678 118.218C414.892 118.746 416.204 119.013 417.528 119C419.316 119.096 421.086 118.596 422.558 117.577C423.153 117.132 423.632 116.551 423.955 115.883C424.278 115.214 424.434 114.478 424.411 113.736C424.433 112.831 424.211 111.936 423.77 111.145C423.255 110.333 422.549 109.659 421.713 109.183Z" fill="#5E1B3C"/>
<path d="M527.681 56.2686H518.037V83.8286H527.681V56.2686Z" fill="#5E1B3C"/>
<path d="M550.767 56.0245C549.049 55.9956 547.352 56.3937 545.828 57.183C544.446 57.9044 543.261 58.9508 542.376 60.2316V56.2684H532.732V83.8284H542.376V69.0423C542.301 67.6949 542.742 66.3695 543.608 65.3331C544.044 64.8886 544.571 64.5419 545.152 64.3159C545.733 64.0899 546.356 63.9897 546.978 64.0222C547.593 63.9973 548.207 64.1051 548.776 64.3384C549.346 64.5716 549.858 64.9248 550.278 65.3737C551.144 66.4102 551.584 67.7355 551.51 69.083V83.8284H561.154V67.772C561.154 64.1678 560.217 61.3088 558.343 59.1951C557.395 58.1385 556.224 57.3058 554.913 56.7574C553.603 56.209 552.186 55.9586 550.767 56.0245Z" fill="#5E1B3C"/>
<path d="M626.49 57.6504C624.185 56.5203 621.65 55.9326 619.082 55.9326C616.513 55.9326 613.979 56.5203 611.673 57.6504C609.524 58.7701 607.735 60.4712 606.51 62.5588C605.274 64.8624 604.627 67.4352 604.627 70.0484C604.627 72.6616 605.274 75.2344 606.51 77.538C607.704 79.6271 609.471 81.3333 611.602 82.4565C613.911 83.5862 616.449 84.1735 619.02 84.1735C621.592 84.1735 624.13 83.5862 626.439 82.4565C628.607 81.3384 630.409 79.6246 631.633 77.5177C632.876 75.2199 633.527 72.6496 633.527 70.0382C633.527 67.4269 632.876 64.8566 631.633 62.5588C630.415 60.4726 628.633 58.7713 626.49 57.6504ZM622.855 74.3267C622.436 74.8059 621.917 75.1879 621.335 75.446C620.753 75.7041 620.121 75.8319 619.484 75.8206C618.858 75.8381 618.237 75.7147 617.666 75.4596C617.094 75.2045 616.588 74.8242 616.184 74.347C615.246 73.1105 614.79 71.5754 614.901 70.0281C614.798 68.4878 615.27 66.9638 616.225 65.7498C616.637 65.2795 617.146 64.9041 617.718 64.6497C618.289 64.3953 618.909 64.2678 619.535 64.2762C620.162 64.2698 620.783 64.398 621.355 64.6523C621.928 64.9065 622.44 65.2808 622.855 65.7498C623.84 66.9507 624.335 68.4788 624.239 70.0281C624.333 71.5834 623.839 73.1171 622.855 74.3267Z" fill="#5E1B3C"/>
<path d="M655.563 71.0546C655.639 72.4022 655.198 73.728 654.331 74.7639C653.438 75.6299 652.242 76.1143 650.996 76.1143C649.751 76.1143 648.554 75.6299 647.661 74.7639C646.779 73.7357 646.33 72.4062 646.409 71.0546V56.2686H636.806V72.2843C636.806 75.9224 637.732 78.7983 639.586 80.912C640.54 81.9686 641.717 82.8002 643.033 83.3468C644.348 83.8934 645.769 84.1413 647.193 84.0725C648.919 84.1049 650.626 83.7104 652.162 82.9241C653.536 82.211 654.706 81.1621 655.563 79.8755V83.7981H665.258V56.2686H655.563V71.0546Z" fill="#5E1B3C"/>
<path d="M589.504 71.7048H588.974L582.752 56.2684H571.887L585.441 84.6516C584.687 86.8161 583.078 88.879 580.023 88.879C578.524 88.8652 577.039 88.5901 575.634 88.0661V95.9113C577.705 96.6036 579.876 96.947 582.06 96.9275C587.895 96.9275 591.225 93.2996 594.117 85.495L604.616 56.248H594.331L589.504 71.7048Z" fill="#5E1B3C"/>
<path d="M522.823 43.6165C521.797 43.6625 520.807 44.009 519.976 44.6128C519.145 45.2166 518.511 46.0511 518.153 47.0121C517.794 47.9732 517.727 49.0183 517.96 50.0172C518.192 51.016 518.714 51.9245 519.461 52.6292C520.207 53.334 521.145 53.8038 522.158 53.9802C523.17 54.1566 524.212 54.0318 525.154 53.6212C526.095 53.2106 526.895 52.5325 527.453 51.6715C528.011 50.8104 528.303 49.8044 528.292 48.779C528.305 48.072 528.17 47.3701 527.896 46.7181C527.622 46.0661 527.215 45.4784 526.7 44.9925C526.186 44.5066 525.575 44.1332 524.907 43.8963C524.24 43.6594 523.53 43.5641 522.823 43.6165Z" fill="#5E1B3C"/>
</g>
<defs>
<clipPath id="clip0_718_117">
<rect width="782" height="119" fill="white"/>
</clipPath>
</defs>
</svg>
